<svg id="Layer_2" data-name="Layer 2" xmlns="http://www.w3.org/2000/svg" width="30.816" height="30.786" viewBox="0 0 30.816 30.786">
  <path id="Path_4116" data-name="Path 4116" d="M26.7,33.808H11.388c-3.579,0-4.835-1.837-4.835-3.555V20.772H6.174A3.176,3.176,0,0,1,3.8,15.5l8.509-9.718a8.13,8.13,0,0,1,12.206,0L33.028,15.5a3.117,3.117,0,0,1,.51,3.4,3.152,3.152,0,0,1-2.9,1.872h-.379v9.481A3.555,3.555,0,0,1,26.7,33.808ZM18.4,5.366a5.76,5.76,0,0,0-4.326,1.956L5.569,17.039a.806.806,0,0,0,.6,1.363H7.738a1.185,1.185,0,0,1,1.185,1.185V30.253c0,1.031,1.552,1.185,2.477,1.185H26.7a1.185,1.185,0,0,0,1.185-1.185V19.587A1.194,1.194,0,0,1,29.069,18.4h1.552a.806.806,0,0,0,.6-1.339L22.717,7.345A5.748,5.748,0,0,0,18.4,5.366Z" transform="translate(-3.012 -3.022)" fill="#95989a"/>
  <path id="Path_4117" data-name="Path 4117" d="M20.3,31.221h-7.11A1.185,1.185,0,0,1,12,30.036v-8.3a4.74,4.74,0,1,1,9.481,0v8.3A1.185,1.185,0,0,1,20.3,31.221Zm-5.925-2.37h4.74V21.74a2.37,2.37,0,1,0-4.74,0Z" transform="translate(-1.349 -0.435)" fill="#95989a"/>
</svg>
