<svg xmlns="http://www.w3.org/2000/svg" width="67.553" height="63.245" viewBox="0 0 67.553 63.245">
  <g id="Group_24552" data-name="Group 24552" transform="translate(-54.724 -44)">
    <path id="Icon_ionic-ios-paper" data-name="Icon ionic-ios-paper" d="M15.716,8.24V57.194a2.211,2.211,0,0,1-2.273,2.128h0a2.211,2.211,0,0,1-2.273-2.128V13.1h-2.6a5.033,5.033,0,0,0-5.2,4.865V61.755a5.033,5.033,0,0,0,5.2,4.865H65.91a4.869,4.869,0,0,0,5.018-4.7V8.24a5.033,5.033,0,0,0-5.2-4.865l-45.143.3C17.714,3.679,15.716,5.549,15.716,8.24ZM26.434,13.1h13.64a2.211,2.211,0,0,1,2.273,2.128h0a2.211,2.211,0,0,1-2.273,2.128H26.434a2.211,2.211,0,0,1-2.273-2.128h0A2.211,2.211,0,0,1,26.434,13.1Zm0,24.325H50.467a2.211,2.211,0,0,1,2.273,2.128h0a2.211,2.211,0,0,1-2.273,2.128H26.434a2.211,2.211,0,0,1-2.273-2.128h0A2.211,2.211,0,0,1,26.434,37.43ZM58.262,53.849H26.434a2.211,2.211,0,0,1-2.273-2.128h0a2.211,2.211,0,0,1,2.273-2.128H58.262a2.211,2.211,0,0,1,2.273,2.128h0A2.211,2.211,0,0,1,58.262,53.849Zm0-24.325H26.434A2.211,2.211,0,0,1,24.16,27.4h0a2.211,2.211,0,0,1,2.273-2.128H58.262A2.211,2.211,0,0,1,60.535,27.4h0A2.211,2.211,0,0,1,58.262,29.524Z" transform="translate(51.349 40.625)" fill="#e84c38"/>
  </g>
</svg>
