<svg xmlns="http://www.w3.org/2000/svg" width="100.458" height="89.948" viewBox="0 0 100.458 89.948">
  <g id="Group_24551" data-name="Group 24551" transform="translate(-372.026 -364.769)">
    <g id="freepik--speech-bubble--inject-56" transform="translate(372.842 365.271)">
      <path id="Path_5208" data-name="Path 5208" d="M2.873,5.416h0Z" transform="translate(43.845 27.187)" fill="#fff"/>
      <path id="Path_4044" data-name="Path 4044" d="M351.734,108.891a5.355,5.355,0,0,1-.205-.77c-.128-.552-.295-1.282-.513-2.257a28.713,28.713,0,0,0-1.039-3.616c-.256-.693-.435-1.475-.782-2.257L348.1,97.5a44.547,44.547,0,0,0-7.758-11.464A43.063,43.063,0,0,0,325.56,75.882a42.584,42.584,0,0,0-9.925-2.821,43.316,43.316,0,0,0-11.106-.18,43.84,43.84,0,0,0-5.771,1c-.961.205-1.9.577-2.873.872a19.557,19.557,0,0,0-2.859,1.039,40.637,40.637,0,0,0-10.836,6.5A43.123,43.123,0,0,0,267.7,105.467a42.41,42.41,0,0,0-.833,14.876,41.073,41.073,0,0,0,4.4,14.722l.744,1.4.089.179v.193c-2.373,7.694-4.681,15.389-6.938,22.737l-.6-.551,18.325-9.554.219-.116.2.154a42.639,42.639,0,0,0,53.232-.923,44.407,44.407,0,0,0,9.631-11.285,47.858,47.858,0,0,0,4.68-11.362,48.693,48.693,0,0,0,1.283-9.195v-3.373c0-.987-.154-1.77-.206-2.449s-.1-1.128-.129-1.5a2.259,2.259,0,0,1,0-.513,2.71,2.71,0,0,1,.091.5,7.769,7.769,0,0,0,.192,1.5c.076.68.165,1.488.282,2.462a33.288,33.288,0,0,1,0,3.385,46.417,46.417,0,0,1-1.156,9.285,47.194,47.194,0,0,1-4.616,11.541,44.679,44.679,0,0,1-9.694,11.542,49.286,49.286,0,0,1-5.331,3.806c-7.592,5.016-18.425,7.409-29.089,5.761a43.93,43.93,0,0,1-19.71-8.425h.435l-18.3,9.579-.924.487.308-1.039,6.925-22.736v.372l-.756-1.423a42.089,42.089,0,0,1-4.489-15.042,42.555,42.555,0,0,1,.872-15.222,43.916,43.916,0,0,1,14.811-23.609,41.733,41.733,0,0,1,11.067-6.579A19.731,19.731,0,0,1,295.629,74c.988-.282,1.936-.654,2.924-.859a41.191,41.191,0,0,1,5.861-1,43.493,43.493,0,0,1,11.284.231,44.2,44.2,0,0,1,10.054,2.924,43.327,43.327,0,0,1,14.9,10.413,44.135,44.135,0,0,1,7.694,11.67c.372.9.731,1.731,1.052,2.565s.513,1.59.756,2.3a23.954,23.954,0,0,1,.961,3.655c.18.962.334,1.718.437,2.283A5.7,5.7,0,0,1,351.734,108.891Z" transform="translate(-263.98 -71.876)" fill="#192f3e" stroke="#192f3e" stroke-width="1"/>
      <g id="Group_9931" data-name="Group 9931" transform="translate(17.455 8.595)">
        <path id="Path_4043" data-name="Path 4043" d="M296,115.563a4.514,4.514,0,1,0,8.835-1.513" transform="translate(-285.879 -84.219)" fill="none" stroke="#192f3e" stroke-width="1"/>
        <path id="Path_5209" data-name="Path 5209" d="M287.73,120.875h29.263l-3.961-4.327V106.17A10.429,10.429,0,0,0,302.362,96h0a10.926,10.926,0,0,0-7.539,2.979,9.92,9.92,0,0,0-3.117,7.191v9.864Z" transform="translate(-287.73 -89.222)" fill="none" stroke="#192f3e" stroke-width="1"/>
        <g id="Path_5210" data-name="Path 5210" transform="translate(13.505 0)" fill="none">
          <path d="M1.127,0A1.127,1.127,0,0,1,2.254,1.127V4.508A1.127,1.127,0,0,1,0,4.508V1.127A1.127,1.127,0,0,1,1.127,0Z" stroke="none"/>
          <path d="M 1.127006530761719 0.9999957084655762 C 1.056976556777954 0.9999957084655762 0.999996542930603 1.056975841522217 0.999996542930603 1.127006053924561 L 0.999996542930603 4.508026123046875 C 0.999996542930603 4.578055858612061 1.056976556777954 4.635035991668701 1.127006530761719 4.635035991668701 C 1.197036504745483 4.635035991668701 1.254016518592834 4.578055858612061 1.254016518592834 4.508026123046875 L 1.254016518592834 1.127006053924561 C 1.254016518592834 1.056975841522217 1.197036504745483 0.9999957084655762 1.127006530761719 0.9999957084655762 M 1.127006530761719 -4.291534423828125e-06 C 1.749436616897583 -4.291534423828125e-06 2.254016637802124 0.5045757293701172 2.254016637802124 1.127006053924561 L 2.254016637802124 4.508026123046875 C 2.254016637802124 5.13045597076416 1.749436616897583 5.635035991668701 1.127006530761719 5.635035991668701 C 0.504576563835144 5.635035991668701 -3.576278686523438e-06 5.13045597076416 -3.576278686523438e-06 4.508026123046875 L -3.576278686523438e-06 1.127006053924561 C -3.576278686523438e-06 0.5045757293701172 0.504576563835144 -4.291534423828125e-06 1.127006530761719 -4.291534423828125e-06 Z" stroke="none" fill="#192f3e"/>
        </g>
        <path id="Path_5211" data-name="Path 5211" d="M296.567,118.689l.711-.981.422-3.658" transform="translate(-279.321 -85.296)" fill="none" stroke="#192f3e" stroke-width="1"/>
      </g>
    </g>
    <g id="Group_9960" data-name="Group 9960" transform="translate(393.613 375.598)">
      <g id="Group_9934" data-name="Group 9934" transform="translate(44.479)">
        <g id="Group_9933" data-name="Group 9933">
          <path id="Path_5213" data-name="Path 5213" d="M16.946,0A16.945,16.945,0,1,1,0,16.945,16.946,16.946,0,0,1,16.946,0Z" fill="#fff" stroke="#192f3e" stroke-width="1"/>
          <path id="Path_5212" data-name="Path 5212" d="M470.193,241.8v14.086h-2.6v-11.92H464.61V241.77Z" transform="translate(-451.093 -232.738)" fill="#192f3e"/>
        </g>
      </g>
      <g id="Group_9948" data-name="Group 9948" transform="translate(0 38.273)">
        <text id="_" data-name="$" transform="translate(14 23)" fill="#3e4b78" font-size="25" font-family="ArialMT, Arial"><tspan x="-13.904" y="0">$</tspan></text>
        <text id="_0.0" data-name="0.0" transform="translate(43.986 23.995)" fill="#3e4b78" font-size="21" font-family="ArialMT, Arial"><tspan x="-29.193" y="0">0.0</tspan></text>
      </g>
    </g>
  </g>
</svg>
