<svg xmlns="http://www.w3.org/2000/svg" width="28.396" height="32.598" viewBox="0 0 28.396 32.598">
  <path id="_4737445_alarm_alert_bell_notification_ring_icon" data-name="4737445_alarm_alert_bell_notification_ring_icon" d="M30,20.42l-.618-.5a1.42,1.42,0,0,1-.532-1.107V13.08A10.649,10.649,0,0,0,20.264,2.637a2.13,2.13,0,0,0-4.125,0A10.649,10.649,0,0,0,7.55,13.08v5.736a1.42,1.42,0,0,1-.532,1.107l-.618.5A6.389,6.389,0,0,0,4,25.39v1.178a2.84,2.84,0,0,0,2.84,2.84H12.7a5.679,5.679,0,0,0,10.982,0h5.871a2.84,2.84,0,0,0,2.84-2.84V25.4A6.389,6.389,0,0,0,30,20.42ZM18.2,30.827a2.84,2.84,0,0,1-2.442-1.42h4.891A2.84,2.84,0,0,1,18.2,30.827Zm11.359-4.259H6.84V25.4a3.55,3.55,0,0,1,1.335-2.769l.618-.5a4.259,4.259,0,0,0,1.6-3.322V13.08a7.809,7.809,0,1,1,15.618,0v5.736a4.259,4.259,0,0,0,1.6,3.329l.618.5A3.55,3.55,0,0,1,29.557,25.4Z" transform="translate(-4 -1.039)" fill="#95989a"/>
</svg>
