<svg xmlns="http://www.w3.org/2000/svg" width="398" height="768" viewBox="0 0 398 768">
  <g id="Group_24550" data-name="Group 24550" transform="translate(-15 -134)">
    <g id="Group_9955" data-name="Group 9955" transform="translate(-62 11.802)">
      <text id="نبذه_عن_فريق_المشروع" data-name="نبذه عن فريق المشروع" transform="translate(365 145.198)" fill="#192f3e" font-size="25" font-family="Arial-BoldMT, Arial" font-weight="700"><tspan x="-191.614" y="0">نبذه عن فريق المشروع</tspan></text>
      <text id="نحن_طالبات_الجامعة_الوطنية_قسم_تقنية_المعلومات_سنة_رابعة_الدفعة_13_" data-name="نحن طالبات الجامعة الوطنية قسم تقنية المعلومات سنة رابعة الدفعة 13 " transform="translate(468 186.198)" fill="#192f3e" font-size="17" font-family="ArialMT, Arial"><tspan x="-384.75" y="0">13</tspan><tspan y="0">نحن طالبات الجامعة الوطنية قسم تقنية المعلومات سنة رابعة الدفعة </tspan><tspan y="0"> </tspan></text>
    </g>
    <g id="Group_10036" data-name="Group 10036">
      <g id="Rectangle_2628" data-name="Rectangle 2628" transform="translate(15 220)" fill="#fff" stroke="#07ab9f" stroke-width="1">
        <rect width="398" height="486" rx="23" stroke="none"/>
        <rect x="0.5" y="0.5" width="397" height="485" rx="22.5" fill="none"/>
      </g>
      <g id="Group_91" data-name="Group 91" transform="translate(28.5 12.216)">
        <g id="Group_99" data-name="Group 99">
          <g id="Group_87" data-name="Group 87" transform="translate(4.889 -330.6)">
            <g id="Group_68" data-name="Group 68" transform="translate(134.111 625.6)">
              <g id="Group_52" data-name="Group 52" transform="translate(0 2)">
                <rect id="Rectangle_9" data-name="Rectangle 9" width="92" height="21" rx="9" transform="translate(0 0)" fill="#07ab9f"/>
              </g>
              <text id="_.........................." data-name=".........................." transform="translate(13 15)" fill="#e4e4e4" font-size="12" font-family="SegoeUI, Segoe UI"><tspan x="0" y="0">..........................</tspan></text>
            </g>
          </g>
        </g>
        <g id="Group_93" data-name="Group 93" transform="translate(-1 -148)">
          <path id="Path_87" data-name="Path 87" d="M485.761,66.3a33.794,33.794,0,1,0-33.794,33.795A33.8,33.8,0,0,0,485.761,66.3Z" transform="translate(-268.283 331.067)" fill="#173143" fill-rule="evenodd"/>
          <path id="Path_88" data-name="Path 88" d="M463.172,97.81c2.055-3.479,5.337-7.549,2.017-13.677-4.862-21.383,17.627-25.691,21.028-16.877,5.533,2.094,5.414,13.558,2.568,19.6-.158,2.45-2.727,4.624,1.938,10.988l.316-.039h0c-6.008,1.739-21.5.909-27.866,0Z" transform="translate(-294.231 313.507)" fill="#221f20" fill-rule="evenodd"/>
          <path id="Path_89" data-name="Path 89" d="M478.841,130.063a10.682,10.682,0,0,1-1.107,4.348,6.946,6.946,0,0,1-3.043,3.162c-4.19,3.715.552,3.4,8.893,8.262,8.893-5.02,13.439-4.467,9.05-8.142a6.7,6.7,0,0,1-3.043-3.281,11.214,11.214,0,0,1-.989-4.348s-3.32,2.569-5.375,2.174a13.055,13.055,0,0,1-4.388-2.174Z" transform="translate(-299.979 274.81)" fill="#f0b97d" fill-rule="evenodd"/>
          <path id="Path_90" data-name="Path 90" d="M484.723,76.848c-8.617,0-9.882,6.205-9.882,13.874,0,7.865,6.6,13.873,9.882,13.873,3.24,0,9.842-6.008,9.842-13.873,0-7.668-1.265-13.874-9.842-13.874Z" transform="translate(-300.96 305.495)" fill="#fed198" fill-rule="evenodd"/>
          <path id="Path_91" data-name="Path 91" d="M473.223,105.51c-.475-1.7-1.068-1.7-1.344-1.264s.632,2.094.671,3.478c0,1.383.434,1.581.95,1.067.473-.475-.276-3.281-.276-3.281Z" transform="translate(-299.221 289.837)" fill="#fed198" fill-rule="evenodd"/>
          <path id="Path_92" data-name="Path 92" d="M489.875,127.543a12.9,12.9,0,0,1,2.767-1.028c.276,0,.593.356.751.356.119,0,.434-.356.712-.356a12.934,12.934,0,0,1,2.765,1.028,5.861,5.861,0,0,1-.908.552,5.064,5.064,0,0,1-5.179,0,5.869,5.869,0,0,1-.908-.552Z" transform="translate(-309.629 276.856)" fill="#e26868" fill-rule="evenodd"/>
          <path id="Path_93" data-name="Path 93" d="M520.792,106.11c.395-1.5.948-1.5,1.186-1.146.237.4-.593,1.9-.593,3.123-.04,1.225-.4,1.384-.829.948-.475-.434.237-2.925.237-2.925Z" transform="translate(-327.226 289.395)" fill="#fed198" fill-rule="evenodd"/>
          <g id="Group" transform="translate(173.087 375.114)">
            <text id="Lo" transform="translate(7.485 5)" font-size="5" font-family="SegoeUI, Segoe UI"><tspan x="0" y="0">Lo</tspan></text>
            <text id="re" transform="translate(0.776 11.096)" font-size="5" font-family="SegoeUI, Segoe UI"><tspan x="0" y="0">re</tspan></text>
            <text id="m_" data-name="m " transform="translate(14.982 10.096)" font-size="4" font-family="SegoeUI, Segoe UI"><tspan x="0" y="0">m </tspan></text>
            <text id="i" transform="translate(0 17.193)" font-size="5" font-family="SegoeUI, Segoe UI"><tspan x="0" y="0">i</tspan></text>
          </g>
          <path id="Path_94" data-name="Path 94" d="M468.987,140.52c3.32,3.478,7.51,4.743,13.163,5.573a8.3,8.3,0,0,1,6.56,4.506,33.708,33.708,0,0,1-25.652,11.779h0A33.584,33.584,0,0,1,437.407,150.6a8.157,8.157,0,0,1,6.521-4.506c5.692-.83,9.842-2.055,13.162-5.534,7.47,6.6,4.427,6.561,11.9-.039Z" transform="translate(-279.375 268.78)" fill="#fefefe" fill-rule="evenodd"/>
          <path id="Path_95" data-name="Path 95" d="M475.311,149.95a37.227,37.227,0,0,0,6.839,1.581,8.3,8.3,0,0,1,6.56,4.506,33.774,33.774,0,0,1-24.623,11.779h-.277Zm-37.9,6.087a33.7,33.7,0,0,0,24.623,11.779h.238l-11.463-17.826a42.339,42.339,0,0,1-6.878,1.541,8.157,8.157,0,0,0-6.521,4.506Z" transform="translate(-279.375 263.342)" fill="#45a5ae" fill-rule="evenodd"/>
          <path id="Path_96" data-name="Path 96" d="M476.495,145.052l-.158-.237.158.237Z" transform="translate(-301.823 266.304)" fill="#699791" fill-rule="evenodd"/>
        </g>
        <g id="Group_96" data-name="Group 96" transform="translate(30 -131)">
          <path id="Path_2804" data-name="Path 2804" d="M485.761,66.3a33.794,33.794,0,1,0-33.794,33.795A33.8,33.8,0,0,0,485.761,66.3Z" transform="translate(-167.283 451.067)" fill="#a956c7" fill-rule="evenodd"/>
          <path id="Path_2805" data-name="Path 2805" d="M463.172,97.81c2.055-3.479,5.337-7.549,2.017-13.677-4.862-21.383,17.627-25.691,21.028-16.877,5.533,2.094,5.414,13.558,2.568,19.6-.158,2.45-2.727,4.624,1.938,10.988l.316-.039h0c-6.008,1.739-21.5.909-27.866,0Z" transform="translate(-193.231 433.507)" fill="#221f20" fill-rule="evenodd"/>
          <path id="Path_2806" data-name="Path 2806" d="M478.841,130.063a10.682,10.682,0,0,1-1.107,4.348,6.946,6.946,0,0,1-3.043,3.162c-4.19,3.715.552,3.4,8.893,8.262,8.893-5.02,13.439-4.467,9.05-8.142a6.7,6.7,0,0,1-3.043-3.281,11.214,11.214,0,0,1-.989-4.348s-3.32,2.569-5.375,2.174a13.055,13.055,0,0,1-4.388-2.174Z" transform="translate(-198.979 394.81)" fill="#f0b97d" fill-rule="evenodd"/>
          <path id="Path_2807" data-name="Path 2807" d="M484.723,76.848c-8.617,0-9.882,6.205-9.882,13.874,0,7.865,6.6,13.873,9.882,13.873,3.24,0,9.842-6.008,9.842-13.873,0-7.668-1.265-13.874-9.842-13.874Z" transform="translate(-199.96 425.495)" fill="#fed198" fill-rule="evenodd"/>
          <path id="Path_2808" data-name="Path 2808" d="M473.223,105.51c-.475-1.7-1.068-1.7-1.344-1.264s.632,2.094.671,3.478c0,1.383.434,1.581.95,1.067.473-.475-.276-3.281-.276-3.281Z" transform="translate(-198.221 409.837)" fill="#fed198" fill-rule="evenodd"/>
          <path id="Path_2809" data-name="Path 2809" d="M489.875,127.543a12.9,12.9,0,0,1,2.767-1.028c.276,0,.593.356.751.356.119,0,.434-.356.712-.356a12.934,12.934,0,0,1,2.765,1.028,5.861,5.861,0,0,1-.908.552,5.064,5.064,0,0,1-5.179,0,5.869,5.869,0,0,1-.908-.552Z" transform="translate(-208.629 396.856)" fill="#e26868" fill-rule="evenodd"/>
          <g id="Group_91-2" data-name="Group 91" transform="translate(274.087 495.114)">
            <text id="Lo-2" data-name="Lo" transform="translate(7.485 5)" font-size="5" font-family="SegoeUI, Segoe UI"><tspan x="0" y="0">Lo</tspan></text>
            <text id="re-2" data-name="re" transform="translate(0.776 11.096)" font-size="5" font-family="SegoeUI, Segoe UI"><tspan x="0" y="0">re</tspan></text>
            <text id="m_2" data-name="m " transform="translate(14.982 10.096)" font-size="4" font-family="SegoeUI, Segoe UI"><tspan x="0" y="0">m </tspan></text>
            <text id="i-2" data-name="i" transform="translate(0 17.193)" font-size="5" font-family="SegoeUI, Segoe UI"><tspan x="0" y="0">i</tspan></text>
          </g>
          <path id="Path_2811" data-name="Path 2811" d="M468.987,140.52c3.32,3.478,7.51,4.743,13.163,5.573a8.3,8.3,0,0,1,6.56,4.506,33.708,33.708,0,0,1-25.652,11.779h0A33.584,33.584,0,0,1,437.407,150.6a8.157,8.157,0,0,1,6.521-4.506c5.692-.83,9.842-2.055,13.162-5.534,7.47,6.6,4.427,6.561,11.9-.039Z" transform="translate(-178.374 388.78)" fill="#fefefe" fill-rule="evenodd"/>
          <path id="Path_2812" data-name="Path 2812" d="M475.311,149.95a37.227,37.227,0,0,0,6.839,1.581,8.3,8.3,0,0,1,6.56,4.506,33.774,33.774,0,0,1-24.623,11.779h-.277Zm-37.9,6.087a33.7,33.7,0,0,0,24.623,11.779h.238l-11.463-17.826a42.339,42.339,0,0,1-6.878,1.541,8.157,8.157,0,0,0-6.521,4.506Z" transform="translate(-178.374 383.342)" fill="#45a5ae" fill-rule="evenodd"/>
          <path id="Path_2813" data-name="Path 2813" d="M476.495,145.052l-.158-.237.158.237Z" transform="translate(-200.823 386.304)" fill="#699791" fill-rule="evenodd"/>
        </g>
        <g id="Group_97" data-name="Group 97" transform="translate(-130 -96)">
          <path id="Path_2785" data-name="Path 2785" d="M485.761,66.3a33.794,33.794,0,1,0-33.794,33.795A33.8,33.8,0,0,0,485.761,66.3Z" transform="translate(-268.283 416.067)" fill="#324a5e" fill-rule="evenodd"/>
          <path id="Path_2786" data-name="Path 2786" d="M463.172,97.81c2.055-3.479,5.337-7.549,2.017-13.677-4.862-21.383,17.627-25.691,21.028-16.877,5.533,2.094,5.414,13.558,2.568,19.6-.158,2.45-2.727,4.624,1.938,10.988l.316-.039h0c-6.008,1.739-21.5.909-27.866,0Z" transform="translate(-294.231 398.507)" fill="#221f20" fill-rule="evenodd"/>
          <path id="Path_2787" data-name="Path 2787" d="M478.841,130.063a10.682,10.682,0,0,1-1.107,4.348,6.946,6.946,0,0,1-3.043,3.162c-4.19,3.715.552,3.4,8.893,8.262,8.893-5.02,13.439-4.467,9.05-8.142a6.7,6.7,0,0,1-3.043-3.281,11.214,11.214,0,0,1-.989-4.348s-3.32,2.569-5.375,2.174a13.055,13.055,0,0,1-4.388-2.174Z" transform="translate(-299.979 359.81)" fill="#f0b97d" fill-rule="evenodd"/>
          <path id="Path_2788" data-name="Path 2788" d="M484.723,76.848c-8.617,0-9.882,6.205-9.882,13.874,0,7.865,6.6,13.873,9.882,13.873,3.24,0,9.842-6.008,9.842-13.873,0-7.668-1.265-13.874-9.842-13.874Z" transform="translate(-300.96 390.495)" fill="#fed198" fill-rule="evenodd"/>
          <path id="Path_2789" data-name="Path 2789" d="M473.223,105.51c-.475-1.7-1.068-1.7-1.344-1.264s.632,2.094.671,3.478c0,1.383.434,1.581.95,1.067.473-.475-.276-3.281-.276-3.281Z" transform="translate(-299.221 374.837)" fill="#fed198" fill-rule="evenodd"/>
          <path id="Path_2790" data-name="Path 2790" d="M489.875,127.543a12.9,12.9,0,0,1,2.767-1.028c.276,0,.593.356.751.356.119,0,.434-.356.712-.356a12.934,12.934,0,0,1,2.765,1.028,5.861,5.861,0,0,1-.908.552,5.064,5.064,0,0,1-5.179,0,5.869,5.869,0,0,1-.908-.552Z" transform="translate(-309.629 361.856)" fill="#e26868" fill-rule="evenodd"/>
          <path id="Path_2791" data-name="Path 2791" d="M520.792,106.11c.395-1.5.948-1.5,1.186-1.146.237.4-.593,1.9-.593,3.123-.04,1.225-.4,1.384-.829.948-.475-.434.237-2.925.237-2.925Z" transform="translate(-327.226 374.395)" fill="#fed198" fill-rule="evenodd"/>
          <g id="Group_90" data-name="Group 90" transform="translate(173.087 460.114)">
            <text id="Lo-3" data-name="Lo" transform="translate(7.485 5)" font-size="5" font-family="SegoeUI, Segoe UI"><tspan x="0" y="0">Lo</tspan></text>
            <text id="re-3" data-name="re" transform="translate(0.776 11.096)" font-size="5" font-family="SegoeUI, Segoe UI"><tspan x="0" y="0">re</tspan></text>
            <text id="m_3" data-name="m " transform="translate(14.982 10.096)" font-size="4" font-family="SegoeUI, Segoe UI"><tspan x="0" y="0">m </tspan></text>
            <text id="i-3" data-name="i" transform="translate(0 17.193)" font-size="5" font-family="SegoeUI, Segoe UI"><tspan x="0" y="0">i</tspan></text>
          </g>
          <path id="Path_2792" data-name="Path 2792" d="M468.987,140.52c3.32,3.478,7.51,4.743,13.163,5.573a8.3,8.3,0,0,1,6.56,4.506,33.708,33.708,0,0,1-25.652,11.779h0A33.584,33.584,0,0,1,437.407,150.6a8.157,8.157,0,0,1,6.521-4.506c5.692-.83,9.842-2.055,13.162-5.534,7.47,6.6,4.427,6.561,11.9-.039Z" transform="translate(-279.375 353.78)" fill="#fefefe" fill-rule="evenodd"/>
          <path id="Path_2793" data-name="Path 2793" d="M475.311,149.95a37.227,37.227,0,0,0,6.839,1.581,8.3,8.3,0,0,1,6.56,4.506,33.774,33.774,0,0,1-24.623,11.779h-.277Zm-37.9,6.087a33.7,33.7,0,0,0,24.623,11.779h.238l-11.463-17.826a42.339,42.339,0,0,1-6.878,1.541,8.157,8.157,0,0,0-6.521,4.506Z" transform="translate(-279.375 348.342)" fill="#45a5ae" fill-rule="evenodd"/>
          <path id="Path_2794" data-name="Path 2794" d="M476.495,145.052l-.158-.237.158.237Z" transform="translate(-301.823 351.304)" fill="#699791" fill-rule="evenodd"/>
        </g>
        <g id="Group_100" data-name="Group 100" transform="translate(-133 132)">
          <g id="Group_87-2" data-name="Group 87" transform="translate(4.889 -330.6)">
            <g id="Group_68-2" data-name="Group 68" transform="translate(134.111 625.6)">
              <g id="Group_52-2" data-name="Group 52" transform="translate(0 2)">
                <rect id="Rectangle_9-2" data-name="Rectangle 9" width="92" height="21" rx="9" transform="translate(0 0)" fill="#07ab9f"/>
              </g>
              <text id="_..........................-2" data-name=".........................." transform="translate(13 15)" fill="#e4e4e4" stroke="rgba(0,0,0,0)" stroke-width="1" font-size="12" font-family="SegoeUI, Segoe UI"><tspan x="0" y="0">..........................</tspan></text>
            </g>
          </g>
        </g>
        <g id="Group_101" data-name="Group 101" transform="translate(134 132)">
          <g id="Group_87-3" data-name="Group 87" transform="translate(4.889 -330.6)">
            <g id="Group_68-3" data-name="Group 68" transform="translate(134.111 625.6)">
              <g id="Group_52-3" data-name="Group 52" transform="translate(0 2)">
                <rect id="Rectangle_9-3" data-name="Rectangle 9" width="92" height="21" rx="9" transform="translate(0 0)" fill="#07ab9f"/>
              </g>
              <text id="_..........................-3" data-name=".........................." transform="translate(13 15)" fill="#e4e4e4" font-size="12" font-family="SegoeUI, Segoe UI"><tspan x="0" y="0">..........................</tspan></text>
            </g>
          </g>
        </g>
        <g id="Group_103" data-name="Group 103" transform="translate(-63 339)">
          <g id="Group_108" data-name="Group 108" transform="translate(68.389 -481.6)">
            <g id="Group_68-4" data-name="Group 68" transform="translate(134.111 625.6)">
              <g id="Group_52-4" data-name="Group 52" transform="translate(0 2)">
                <rect id="Rectangle_9-4" data-name="Rectangle 9" width="92" height="21" rx="9" transform="translate(0 0)" fill="#07ab9f"/>
              </g>
              <text id="_..........................-4" data-name=".........................." transform="translate(16 15)" fill="#e4e4e4" font-size="12" font-family="SegoeUI, Segoe UI"><tspan x="0" y="0">..........................</tspan></text>
            </g>
          </g>
        </g>
      </g>
      <g id="Group_107" data-name="Group 107" transform="translate(30.758 55.974)">
        <path id="Path_87-2" data-name="Path 87" d="M484.245,65.538a33.036,33.036,0,1,0-33.036,33.037,33.046,33.046,0,0,0,33.036-33.037Z" transform="translate(-268.283 331.067)" fill="#707070" fill-rule="evenodd"/>
        <path id="Path_88-2" data-name="Path 88" d="M463.172,97.028c2.009-3.4,5.217-7.38,1.971-13.37-4.753-20.9,17.232-25.114,20.556-16.5,5.408,2.047,5.293,13.253,2.511,19.165-.154,2.4-2.665,4.521,1.894,10.742l.309-.038h0c-5.873,1.7-21.02.888-27.241,0Z" transform="translate(-294.659 313.217)" fill="#221f20" fill-rule="evenodd"/>
        <path id="Path_89-2" data-name="Path 89" d="M478.713,130.063a10.44,10.44,0,0,1-1.082,4.25,6.791,6.791,0,0,1-2.975,3.091c-4.1,3.632.54,3.323,8.694,8.076,8.693-4.907,13.137-4.367,8.847-7.96a6.544,6.544,0,0,1-2.974-3.208,10.961,10.961,0,0,1-.966-4.25s-3.246,2.512-5.254,2.125a12.763,12.763,0,0,1-4.289-2.125Z" transform="translate(-300.501 273.883)" fill="#f0b97d" fill-rule="evenodd"/>
        <path id="Path_90-2" data-name="Path 90" d="M484.5,76.848c-8.424,0-9.661,6.066-9.661,13.563,0,7.689,6.454,13.562,9.661,13.562,3.168,0,9.622-5.873,9.622-13.562,0-7.5-1.237-13.562-9.622-13.562Z" transform="translate(-301.498 305.074)" fill="#fed198" fill-rule="evenodd"/>
        <path id="Path_91-2" data-name="Path 91" d="M473.191,105.476c-.465-1.661-1.044-1.661-1.314-1.236s.618,2.047.656,3.4c0,1.352.425,1.546.928,1.043.463-.464-.27-3.207-.27-3.207Z" transform="translate(-299.731 289.158)" fill="#fed198" fill-rule="evenodd"/>
        <path id="Path_92-2" data-name="Path 92" d="M489.875,127.52a12.615,12.615,0,0,1,2.7-1.005c.27,0,.579.348.734.348.116,0,.424-.348.7-.348a12.644,12.644,0,0,1,2.7,1.005,5.731,5.731,0,0,1-.888.54,4.95,4.95,0,0,1-5.063,0,5.738,5.738,0,0,1-.887-.54Z" transform="translate(-310.31 275.963)" fill="#e26868" fill-rule="evenodd"/>
        <path id="Path_93-2" data-name="Path 93" d="M520.783,106.08c.386-1.468.926-1.468,1.159-1.12.232.387-.58,1.855-.58,3.053-.039,1.2-.387,1.353-.811.927-.465-.425.231-2.859.231-2.859Z" transform="translate(-328.197 288.709)" fill="#fed198" fill-rule="evenodd"/>
        <g id="Group-2" data-name="Group" transform="translate(172.566 374.855)">
          <text id="Lo-4" data-name="Lo" transform="translate(7.317 3)" font-size="3" font-family="SegoeUI, Segoe UI"><tspan x="0" y="0">Lo</tspan></text>
          <text id="re-4" data-name="re" transform="translate(0.759 8.96)" font-size="3" font-family="SegoeUI, Segoe UI"><tspan x="0" y="0">re</tspan></text>
          <text id="m_4" data-name="m " transform="translate(14.646 8.96)" font-size="3" font-family="SegoeUI, Segoe UI"><tspan x="0" y="0">m </tspan></text>
          <text id="i-4" data-name="i" transform="translate(0 13.92)" font-size="2" font-family="SegoeUI, Segoe UI"><tspan x="0" y="0">i</tspan></text>
        </g>
        <path id="Path_94-2" data-name="Path 94" d="M468.279,140.52c3.245,3.4,7.341,4.637,12.867,5.448a8.109,8.109,0,0,1,6.413,4.4,32.952,32.952,0,0,1-25.076,11.515h0a32.83,32.83,0,0,1-25.076-11.515,7.974,7.974,0,0,1,6.375-4.4c5.564-.811,9.621-2.009,12.866-5.41,7.3,6.453,4.328,6.414,11.631-.038Z" transform="translate(-279.557 267.754)" fill="#fefefe" fill-rule="evenodd"/>
        <path id="Path_95-2" data-name="Path 95" d="M474.46,149.95a36.391,36.391,0,0,0,6.686,1.545,8.109,8.109,0,0,1,6.413,4.4,33.016,33.016,0,0,1-24.071,11.515h-.271Zm-37.053,5.95a32.947,32.947,0,0,0,24.071,11.515h.233l-11.206-17.426a41.39,41.39,0,0,1-6.724,1.507,7.974,7.974,0,0,0-6.375,4.4Z" transform="translate(-279.557 262.227)" fill="#45a5ae" fill-rule="evenodd"/>
        <path id="Path_96-2" data-name="Path 96" d="M476.491,145.047l-.154-.232.154.232Z" transform="translate(-302.375 265.237)" fill="#699791" fill-rule="evenodd"/>
      </g>
      <g id="Group_10018" data-name="Group 10018" transform="translate(33.026 -113.679)">
        <g id="Snapchat" transform="translate(164.992 638.569)">
          <path id="Path_5191" data-name="Path 5191" d="M8.687,15.341a3.025,3.025,0,0,1-1.617-.425.478.478,0,1,1,.491-.821,2.018,2.018,0,0,0,1.126.291,2.218,2.218,0,0,0,1.5-.544,1.846,1.846,0,0,1,1.908-.386.816.816,0,0,0,.219.052,1.908,1.908,0,0,0,.048-.248.954.954,0,0,1,.439-.782.811.811,0,0,1,.773.057.415.415,0,0,0,.382,0,.787.787,0,0,0,.153-.086,4.508,4.508,0,0,1-1.431-.477c-1.2-.611-1.2-2.266-1.2-2.81s.592-.806,1.021-.954a2.905,2.905,0,0,0,.358-.134.119.119,0,0,0-.043-.062c-.057-.038-.248-.057-.6.1a.611.611,0,0,1-.63.1c-.181-.081-.563-.253-.477-1.966a2.447,2.447,0,0,0-4.866.029c.1,1.684-.281,1.856-.477,1.937a.611.611,0,0,1-.63-.1c-.353-.157-.544-.138-.6-.1a.119.119,0,0,0-.043.062,2.905,2.905,0,0,0,.358.134c.434.148,1.026.348,1.026.93s0,2.2-1.2,2.81a4.509,4.509,0,0,1-1.431.477.787.787,0,0,0,.153.086.415.415,0,0,0,.382,0,.811.811,0,0,1,.787-.033.954.954,0,0,1,.425.787,1.908,1.908,0,0,0,.048.248.816.816,0,0,0,.219-.052,1.947,1.947,0,0,1,.9-.1.484.484,0,0,1-.129.959,1,1,0,0,0-.477.067,1.2,1.2,0,0,1-1.035-.029,1.15,1.15,0,0,1-.458-.921,1.5,1.5,0,0,1-1.522-.372c-.324-.291-.644-.773-.477-1.183a.577.577,0,0,1,.549-.353A3.034,3.034,0,0,0,4.264,11.1c.615-.315.668-1.36.673-1.842a3.869,3.869,0,0,0-.377-.143c-.434-.148-1.026-.348-1.026-.93a1.121,1.121,0,0,1,.477-.978,1.431,1.431,0,0,1,1.255-.062,8.2,8.2,0,0,0,0-.84,3.411,3.411,0,1,1,6.822-.029,7.591,7.591,0,0,0,0,.868,1.431,1.431,0,0,1,1.255.062,1.121,1.121,0,0,1,.5.978c0,.582-.592.782-1.026.93a3.869,3.869,0,0,0-.377.143c0,.477.057,1.527.673,1.842a3.034,3.034,0,0,0,1.655.425.577.577,0,0,1,.558.372c.157.41-.162.892-.477,1.183a1.5,1.5,0,0,1-1.531.353,1.15,1.15,0,0,1-.477.883,1.2,1.2,0,0,1-1.035.029c-.477-.167-.663-.033-1.054.253a3.177,3.177,0,0,1-2.061.744ZM13.081,13.352ZM4.293,13.352Z" transform="translate(-2.014 -2.88)" fill="#3e4b78"/>
        </g>
        <g id="Tiktok" transform="translate(185.984 638.568)">
          <path id="Path_5192" data-name="Path 5192" d="M15.877,4.8a.477.477,0,0,0-.448-.057A1.665,1.665,0,0,1,13.11,3.181a.48.48,0,0,0-.477-.491H10.725a.477.477,0,0,0-.477.477v8.168a1.193,1.193,0,1,1-1.193-1.193.477.477,0,0,0,.477-.477V7.757a.477.477,0,0,0-.477-.477A4.06,4.06,0,0,0,5,11.335a4.012,4.012,0,0,0,.763,2.385.484.484,0,0,0,.778-.577,3.072,3.072,0,0,1-.587-1.808A3.111,3.111,0,0,1,8.578,8.267v.954A2.147,2.147,0,1,0,11.2,11.335V3.644h.988a2.629,2.629,0,0,0,2.591,2.2,3.006,3.006,0,0,0,.358-.024V6.75a3.4,3.4,0,0,1-2.261-.4.477.477,0,0,0-.716.415v4.566A3.106,3.106,0,0,1,7.867,14.2a.477.477,0,0,0-.367.878,3.988,3.988,0,0,0,1.565.315,4.065,4.065,0,0,0,4.046-3.74.363.363,0,0,0,0-.076V7.509a4.356,4.356,0,0,0,2.634.076.477.477,0,0,0,.344-.477V5.223a.477.477,0,0,0-.21-.42Z" transform="translate(-5 -2.69)" fill="#3e4b78"/>
        </g>
        <g id="Twitter" transform="translate(144 639.125)">
          <path id="Path_5193" data-name="Path 5193" d="M6.738,15.775a8.763,8.763,0,0,1-4.533-1.348.5.5,0,0,1,.559-.818,6.731,6.731,0,0,0,8.665-.892c1.838-2.3,1.838-3.166,1.838-5.063a.49.49,0,0,1,.4-.49l-.132-.059a.488.488,0,0,1,0-.872l.1-.054a1.1,1.1,0,0,1-.716-.137,3.034,3.034,0,0,0-2.49-.343c-.72.309-1.083,1.132-1.083,2.45a.49.49,0,0,1-.49.49,7.812,7.812,0,0,1-5.17-2.068A2.093,2.093,0,0,0,4.714,8.708a.49.49,0,0,1-.27.907,2.539,2.539,0,0,1-.667-.123,3.823,3.823,0,0,0,1.377,1.176.475.475,0,0,1-.221.907H4.7a1.96,1.96,0,0,0,1.705.98.49.49,0,0,1,.49.49c0,.72-.794.98-1.47.98a.49.49,0,0,1-.372-.809A3.279,3.279,0,0,1,3.465,11.2a.49.49,0,0,1,.088-.421v-.029A2.985,2.985,0,0,1,2.484,8.634a.488.488,0,0,1,.49-.49,3.1,3.1,0,0,1,.054-2.671.489.489,0,0,1,.784-.127A7.219,7.219,0,0,0,8.365,7.634c.152-1.818.98-2.553,1.705-2.847a4.047,4.047,0,0,1,3.362.421,2.334,2.334,0,0,0,1.446-.348.49.49,0,0,1,.784.568,3.563,3.563,0,0,1-.524.765.49.49,0,0,1,.524.7,2.21,2.21,0,0,1-1.416,1.171c0,1.759-.147,2.882-2.068,5.283l-.034.044a7.488,7.488,0,0,1-5.406,2.382Z" transform="translate(-1.989 -4.582)" fill="#3e4b78"/>
        </g>
        <g id="Instagram" transform="translate(204.59 638.013)">
          <path id="Path_5194" data-name="Path 5194" d="M11.065,15.358H6.294A4.294,4.294,0,0,1,2,11.065V6.294A4.294,4.294,0,0,1,6.294,2h4.771a4.294,4.294,0,0,1,4.294,4.294v4.771A4.294,4.294,0,0,1,11.065,15.358ZM6.294,2.954a3.34,3.34,0,0,0-3.34,3.34v4.771a3.34,3.34,0,0,0,3.34,3.34h4.771a3.34,3.34,0,0,0,3.34-3.34V6.294a3.34,3.34,0,0,0-3.34-3.34Z" transform="translate(-2 -2)" fill="#3e4b78"/>
          <path id="Path_5195" data-name="Path 5195" d="M12.339,15.679a3.287,3.287,0,0,1-1.431-.315.477.477,0,1,1,.406-.864,2.385,2.385,0,1,0-1.054-.954.477.477,0,1,1-.825.477A3.306,3.306,0,0,1,9,12.34a3.34,3.34,0,1,1,3.34,3.34Z" transform="translate(-5.66 -5.667)" fill="#3e4b78"/>
          <circle id="Ellipse_472" data-name="Ellipse 472" cx="0.5" cy="0.5" r="0.5" transform="translate(9.884 2.667)" fill="#3e4b78"/>
        </g>
      </g>
      <g id="Group_10019" data-name="Group 10019" transform="translate(-102.974 -169.679)">
        <g id="Snapchat-2" data-name="Snapchat" transform="translate(164.992 638.569)">
          <path id="Path_5191-2" data-name="Path 5191" d="M8.687,15.341a3.025,3.025,0,0,1-1.617-.425.478.478,0,1,1,.491-.821,2.018,2.018,0,0,0,1.126.291,2.218,2.218,0,0,0,1.5-.544,1.846,1.846,0,0,1,1.908-.386.816.816,0,0,0,.219.052,1.908,1.908,0,0,0,.048-.248.954.954,0,0,1,.439-.782.811.811,0,0,1,.773.057.415.415,0,0,0,.382,0,.787.787,0,0,0,.153-.086,4.508,4.508,0,0,1-1.431-.477c-1.2-.611-1.2-2.266-1.2-2.81s.592-.806,1.021-.954a2.905,2.905,0,0,0,.358-.134.119.119,0,0,0-.043-.062c-.057-.038-.248-.057-.6.1a.611.611,0,0,1-.63.1c-.181-.081-.563-.253-.477-1.966a2.447,2.447,0,0,0-4.866.029c.1,1.684-.281,1.856-.477,1.937a.611.611,0,0,1-.63-.1c-.353-.157-.544-.138-.6-.1a.119.119,0,0,0-.043.062,2.905,2.905,0,0,0,.358.134c.434.148,1.026.348,1.026.93s0,2.2-1.2,2.81a4.509,4.509,0,0,1-1.431.477.787.787,0,0,0,.153.086.415.415,0,0,0,.382,0,.811.811,0,0,1,.787-.033.954.954,0,0,1,.425.787,1.908,1.908,0,0,0,.048.248.816.816,0,0,0,.219-.052,1.947,1.947,0,0,1,.9-.1.484.484,0,0,1-.129.959,1,1,0,0,0-.477.067,1.2,1.2,0,0,1-1.035-.029,1.15,1.15,0,0,1-.458-.921,1.5,1.5,0,0,1-1.522-.372c-.324-.291-.644-.773-.477-1.183a.577.577,0,0,1,.549-.353A3.034,3.034,0,0,0,4.264,11.1c.615-.315.668-1.36.673-1.842a3.869,3.869,0,0,0-.377-.143c-.434-.148-1.026-.348-1.026-.93a1.121,1.121,0,0,1,.477-.978,1.431,1.431,0,0,1,1.255-.062,8.2,8.2,0,0,0,0-.84,3.411,3.411,0,1,1,6.822-.029,7.591,7.591,0,0,0,0,.868,1.431,1.431,0,0,1,1.255.062,1.121,1.121,0,0,1,.5.978c0,.582-.592.782-1.026.93a3.869,3.869,0,0,0-.377.143c0,.477.057,1.527.673,1.842a3.034,3.034,0,0,0,1.655.425.577.577,0,0,1,.558.372c.157.41-.162.892-.477,1.183a1.5,1.5,0,0,1-1.531.353,1.15,1.15,0,0,1-.477.883,1.2,1.2,0,0,1-1.035.029c-.477-.167-.663-.033-1.054.253a3.177,3.177,0,0,1-2.061.744ZM13.081,13.352ZM4.293,13.352Z" transform="translate(-2.014 -2.88)" fill="#3e4b78"/>
        </g>
        <g id="Tiktok-2" data-name="Tiktok" transform="translate(185.984 638.568)">
          <path id="Path_5192-2" data-name="Path 5192" d="M15.877,4.8a.477.477,0,0,0-.448-.057A1.665,1.665,0,0,1,13.11,3.181a.48.48,0,0,0-.477-.491H10.725a.477.477,0,0,0-.477.477v8.168a1.193,1.193,0,1,1-1.193-1.193.477.477,0,0,0,.477-.477V7.757a.477.477,0,0,0-.477-.477A4.06,4.06,0,0,0,5,11.335a4.012,4.012,0,0,0,.763,2.385.484.484,0,0,0,.778-.577,3.072,3.072,0,0,1-.587-1.808A3.111,3.111,0,0,1,8.578,8.267v.954A2.147,2.147,0,1,0,11.2,11.335V3.644h.988a2.629,2.629,0,0,0,2.591,2.2,3.006,3.006,0,0,0,.358-.024V6.75a3.4,3.4,0,0,1-2.261-.4.477.477,0,0,0-.716.415v4.566A3.106,3.106,0,0,1,7.867,14.2a.477.477,0,0,0-.367.878,3.988,3.988,0,0,0,1.565.315,4.065,4.065,0,0,0,4.046-3.74.363.363,0,0,0,0-.076V7.509a4.356,4.356,0,0,0,2.634.076.477.477,0,0,0,.344-.477V5.223a.477.477,0,0,0-.21-.42Z" transform="translate(-5 -2.69)" fill="#3e4b78"/>
        </g>
        <g id="Twitter-2" data-name="Twitter" transform="translate(144 639.125)">
          <path id="Path_5193-2" data-name="Path 5193" d="M6.738,15.775a8.763,8.763,0,0,1-4.533-1.348.5.5,0,0,1,.559-.818,6.731,6.731,0,0,0,8.665-.892c1.838-2.3,1.838-3.166,1.838-5.063a.49.49,0,0,1,.4-.49l-.132-.059a.488.488,0,0,1,0-.872l.1-.054a1.1,1.1,0,0,1-.716-.137,3.034,3.034,0,0,0-2.49-.343c-.72.309-1.083,1.132-1.083,2.45a.49.49,0,0,1-.49.49,7.812,7.812,0,0,1-5.17-2.068A2.093,2.093,0,0,0,4.714,8.708a.49.49,0,0,1-.27.907,2.539,2.539,0,0,1-.667-.123,3.823,3.823,0,0,0,1.377,1.176.475.475,0,0,1-.221.907H4.7a1.96,1.96,0,0,0,1.705.98.49.49,0,0,1,.49.49c0,.72-.794.98-1.47.98a.49.49,0,0,1-.372-.809A3.279,3.279,0,0,1,3.465,11.2a.49.49,0,0,1,.088-.421v-.029A2.985,2.985,0,0,1,2.484,8.634a.488.488,0,0,1,.49-.49,3.1,3.1,0,0,1,.054-2.671.489.489,0,0,1,.784-.127A7.219,7.219,0,0,0,8.365,7.634c.152-1.818.98-2.553,1.705-2.847a4.047,4.047,0,0,1,3.362.421,2.334,2.334,0,0,0,1.446-.348.49.49,0,0,1,.784.568,3.563,3.563,0,0,1-.524.765.49.49,0,0,1,.524.7,2.21,2.21,0,0,1-1.416,1.171c0,1.759-.147,2.882-2.068,5.283l-.034.044a7.488,7.488,0,0,1-5.406,2.382Z" transform="translate(-1.989 -4.582)" fill="#3e4b78"/>
        </g>
        <g id="Instagram-2" data-name="Instagram" transform="translate(204.59 638.013)">
          <path id="Path_5194-2" data-name="Path 5194" d="M11.065,15.358H6.294A4.294,4.294,0,0,1,2,11.065V6.294A4.294,4.294,0,0,1,6.294,2h4.771a4.294,4.294,0,0,1,4.294,4.294v4.771A4.294,4.294,0,0,1,11.065,15.358ZM6.294,2.954a3.34,3.34,0,0,0-3.34,3.34v4.771a3.34,3.34,0,0,0,3.34,3.34h4.771a3.34,3.34,0,0,0,3.34-3.34V6.294a3.34,3.34,0,0,0-3.34-3.34Z" transform="translate(-2 -2)" fill="#3e4b78"/>
          <path id="Path_5195-2" data-name="Path 5195" d="M12.339,15.679a3.287,3.287,0,0,1-1.431-.315.477.477,0,1,1,.406-.864,2.385,2.385,0,1,0-1.054-.954.477.477,0,1,1-.825.477A3.306,3.306,0,0,1,9,12.34a3.34,3.34,0,1,1,3.34,3.34Z" transform="translate(-5.66 -5.667)" fill="#3e4b78"/>
          <circle id="Ellipse_472-2" data-name="Ellipse 472" cx="0.5" cy="0.5" r="0.5" transform="translate(9.884 2.667)" fill="#3e4b78"/>
        </g>
      </g>
      <g id="Group_10020" data-name="Group 10020" transform="translate(33.026 -301.679)">
        <g id="Snapchat-3" data-name="Snapchat" transform="translate(164.992 638.569)">
          <path id="Path_5191-3" data-name="Path 5191" d="M8.687,15.341a3.025,3.025,0,0,1-1.617-.425.478.478,0,1,1,.491-.821,2.018,2.018,0,0,0,1.126.291,2.218,2.218,0,0,0,1.5-.544,1.846,1.846,0,0,1,1.908-.386.816.816,0,0,0,.219.052,1.908,1.908,0,0,0,.048-.248.954.954,0,0,1,.439-.782.811.811,0,0,1,.773.057.415.415,0,0,0,.382,0,.787.787,0,0,0,.153-.086,4.508,4.508,0,0,1-1.431-.477c-1.2-.611-1.2-2.266-1.2-2.81s.592-.806,1.021-.954a2.905,2.905,0,0,0,.358-.134.119.119,0,0,0-.043-.062c-.057-.038-.248-.057-.6.1a.611.611,0,0,1-.63.1c-.181-.081-.563-.253-.477-1.966a2.447,2.447,0,0,0-4.866.029c.1,1.684-.281,1.856-.477,1.937a.611.611,0,0,1-.63-.1c-.353-.157-.544-.138-.6-.1a.119.119,0,0,0-.043.062,2.905,2.905,0,0,0,.358.134c.434.148,1.026.348,1.026.93s0,2.2-1.2,2.81a4.509,4.509,0,0,1-1.431.477.787.787,0,0,0,.153.086.415.415,0,0,0,.382,0,.811.811,0,0,1,.787-.033.954.954,0,0,1,.425.787,1.908,1.908,0,0,0,.048.248.816.816,0,0,0,.219-.052,1.947,1.947,0,0,1,.9-.1.484.484,0,0,1-.129.959,1,1,0,0,0-.477.067,1.2,1.2,0,0,1-1.035-.029,1.15,1.15,0,0,1-.458-.921,1.5,1.5,0,0,1-1.522-.372c-.324-.291-.644-.773-.477-1.183a.577.577,0,0,1,.549-.353A3.034,3.034,0,0,0,4.264,11.1c.615-.315.668-1.36.673-1.842a3.869,3.869,0,0,0-.377-.143c-.434-.148-1.026-.348-1.026-.93a1.121,1.121,0,0,1,.477-.978,1.431,1.431,0,0,1,1.255-.062,8.2,8.2,0,0,0,0-.84,3.411,3.411,0,1,1,6.822-.029,7.591,7.591,0,0,0,0,.868,1.431,1.431,0,0,1,1.255.062,1.121,1.121,0,0,1,.5.978c0,.582-.592.782-1.026.93a3.869,3.869,0,0,0-.377.143c0,.477.057,1.527.673,1.842a3.034,3.034,0,0,0,1.655.425.577.577,0,0,1,.558.372c.157.41-.162.892-.477,1.183a1.5,1.5,0,0,1-1.531.353,1.15,1.15,0,0,1-.477.883,1.2,1.2,0,0,1-1.035.029c-.477-.167-.663-.033-1.054.253a3.177,3.177,0,0,1-2.061.744ZM13.081,13.352ZM4.293,13.352Z" transform="translate(-2.014 -2.88)" fill="#3e4b78"/>
        </g>
        <g id="Tiktok-3" data-name="Tiktok" transform="translate(185.984 638.568)">
          <path id="Path_5192-3" data-name="Path 5192" d="M15.877,4.8a.477.477,0,0,0-.448-.057A1.665,1.665,0,0,1,13.11,3.181a.48.48,0,0,0-.477-.491H10.725a.477.477,0,0,0-.477.477v8.168a1.193,1.193,0,1,1-1.193-1.193.477.477,0,0,0,.477-.477V7.757a.477.477,0,0,0-.477-.477A4.06,4.06,0,0,0,5,11.335a4.012,4.012,0,0,0,.763,2.385.484.484,0,0,0,.778-.577,3.072,3.072,0,0,1-.587-1.808A3.111,3.111,0,0,1,8.578,8.267v.954A2.147,2.147,0,1,0,11.2,11.335V3.644h.988a2.629,2.629,0,0,0,2.591,2.2,3.006,3.006,0,0,0,.358-.024V6.75a3.4,3.4,0,0,1-2.261-.4.477.477,0,0,0-.716.415v4.566A3.106,3.106,0,0,1,7.867,14.2a.477.477,0,0,0-.367.878,3.988,3.988,0,0,0,1.565.315,4.065,4.065,0,0,0,4.046-3.74.363.363,0,0,0,0-.076V7.509a4.356,4.356,0,0,0,2.634.076.477.477,0,0,0,.344-.477V5.223a.477.477,0,0,0-.21-.42Z" transform="translate(-5 -2.69)" fill="#3e4b78"/>
        </g>
        <g id="Twitter-3" data-name="Twitter" transform="translate(144 639.125)">
          <path id="Path_5193-3" data-name="Path 5193" d="M6.738,15.775a8.763,8.763,0,0,1-4.533-1.348.5.5,0,0,1,.559-.818,6.731,6.731,0,0,0,8.665-.892c1.838-2.3,1.838-3.166,1.838-5.063a.49.49,0,0,1,.4-.49l-.132-.059a.488.488,0,0,1,0-.872l.1-.054a1.1,1.1,0,0,1-.716-.137,3.034,3.034,0,0,0-2.49-.343c-.72.309-1.083,1.132-1.083,2.45a.49.49,0,0,1-.49.49,7.812,7.812,0,0,1-5.17-2.068A2.093,2.093,0,0,0,4.714,8.708a.49.49,0,0,1-.27.907,2.539,2.539,0,0,1-.667-.123,3.823,3.823,0,0,0,1.377,1.176.475.475,0,0,1-.221.907H4.7a1.96,1.96,0,0,0,1.705.98.49.49,0,0,1,.49.49c0,.72-.794.98-1.47.98a.49.49,0,0,1-.372-.809A3.279,3.279,0,0,1,3.465,11.2a.49.49,0,0,1,.088-.421v-.029A2.985,2.985,0,0,1,2.484,8.634a.488.488,0,0,1,.49-.49,3.1,3.1,0,0,1,.054-2.671.489.489,0,0,1,.784-.127A7.219,7.219,0,0,0,8.365,7.634c.152-1.818.98-2.553,1.705-2.847a4.047,4.047,0,0,1,3.362.421,2.334,2.334,0,0,0,1.446-.348.49.49,0,0,1,.784.568,3.563,3.563,0,0,1-.524.765.49.49,0,0,1,.524.7,2.21,2.21,0,0,1-1.416,1.171c0,1.759-.147,2.882-2.068,5.283l-.034.044a7.488,7.488,0,0,1-5.406,2.382Z" transform="translate(-1.989 -4.582)" fill="#3e4b78"/>
        </g>
        <g id="Instagram-3" data-name="Instagram" transform="translate(204.59 638.013)">
          <path id="Path_5194-3" data-name="Path 5194" d="M11.065,15.358H6.294A4.294,4.294,0,0,1,2,11.065V6.294A4.294,4.294,0,0,1,6.294,2h4.771a4.294,4.294,0,0,1,4.294,4.294v4.771A4.294,4.294,0,0,1,11.065,15.358ZM6.294,2.954a3.34,3.34,0,0,0-3.34,3.34v4.771a3.34,3.34,0,0,0,3.34,3.34h4.771a3.34,3.34,0,0,0,3.34-3.34V6.294a3.34,3.34,0,0,0-3.34-3.34Z" transform="translate(-2 -2)" fill="#3e4b78"/>
          <path id="Path_5195-3" data-name="Path 5195" d="M12.339,15.679a3.287,3.287,0,0,1-1.431-.315.477.477,0,1,1,.406-.864,2.385,2.385,0,1,0-1.054-.954.477.477,0,1,1-.825.477A3.306,3.306,0,0,1,9,12.34a3.34,3.34,0,1,1,3.34,3.34Z" transform="translate(-5.66 -5.667)" fill="#3e4b78"/>
          <circle id="Ellipse_472-3" data-name="Ellipse 472" cx="0.5" cy="0.5" r="0.5" transform="translate(9.884 2.667)" fill="#3e4b78"/>
        </g>
      </g>
      <g id="Group_10021" data-name="Group 10021" transform="translate(168.393 -169.679)">
        <g id="Snapchat-4" data-name="Snapchat" transform="translate(164.992 638.569)">
          <path id="Path_5191-4" data-name="Path 5191" d="M8.687,15.341a3.025,3.025,0,0,1-1.617-.425.478.478,0,1,1,.491-.821,2.018,2.018,0,0,0,1.126.291,2.218,2.218,0,0,0,1.5-.544,1.846,1.846,0,0,1,1.908-.386.816.816,0,0,0,.219.052,1.908,1.908,0,0,0,.048-.248.954.954,0,0,1,.439-.782.811.811,0,0,1,.773.057.415.415,0,0,0,.382,0,.787.787,0,0,0,.153-.086,4.508,4.508,0,0,1-1.431-.477c-1.2-.611-1.2-2.266-1.2-2.81s.592-.806,1.021-.954a2.905,2.905,0,0,0,.358-.134.119.119,0,0,0-.043-.062c-.057-.038-.248-.057-.6.1a.611.611,0,0,1-.63.1c-.181-.081-.563-.253-.477-1.966a2.447,2.447,0,0,0-4.866.029c.1,1.684-.281,1.856-.477,1.937a.611.611,0,0,1-.63-.1c-.353-.157-.544-.138-.6-.1a.119.119,0,0,0-.043.062,2.905,2.905,0,0,0,.358.134c.434.148,1.026.348,1.026.93s0,2.2-1.2,2.81a4.509,4.509,0,0,1-1.431.477.787.787,0,0,0,.153.086.415.415,0,0,0,.382,0,.811.811,0,0,1,.787-.033.954.954,0,0,1,.425.787,1.908,1.908,0,0,0,.048.248.816.816,0,0,0,.219-.052,1.947,1.947,0,0,1,.9-.1.484.484,0,0,1-.129.959,1,1,0,0,0-.477.067,1.2,1.2,0,0,1-1.035-.029,1.15,1.15,0,0,1-.458-.921,1.5,1.5,0,0,1-1.522-.372c-.324-.291-.644-.773-.477-1.183a.577.577,0,0,1,.549-.353A3.034,3.034,0,0,0,4.264,11.1c.615-.315.668-1.36.673-1.842a3.869,3.869,0,0,0-.377-.143c-.434-.148-1.026-.348-1.026-.93a1.121,1.121,0,0,1,.477-.978,1.431,1.431,0,0,1,1.255-.062,8.2,8.2,0,0,0,0-.84,3.411,3.411,0,1,1,6.822-.029,7.591,7.591,0,0,0,0,.868,1.431,1.431,0,0,1,1.255.062,1.121,1.121,0,0,1,.5.978c0,.582-.592.782-1.026.93a3.869,3.869,0,0,0-.377.143c0,.477.057,1.527.673,1.842a3.034,3.034,0,0,0,1.655.425.577.577,0,0,1,.558.372c.157.41-.162.892-.477,1.183a1.5,1.5,0,0,1-1.531.353,1.15,1.15,0,0,1-.477.883,1.2,1.2,0,0,1-1.035.029c-.477-.167-.663-.033-1.054.253a3.177,3.177,0,0,1-2.061.744ZM13.081,13.352ZM4.293,13.352Z" transform="translate(-2.014 -2.88)" fill="#3e4b78"/>
        </g>
        <g id="Tiktok-4" data-name="Tiktok" transform="translate(185.984 638.568)">
          <path id="Path_5192-4" data-name="Path 5192" d="M15.877,4.8a.477.477,0,0,0-.448-.057A1.665,1.665,0,0,1,13.11,3.181a.48.48,0,0,0-.477-.491H10.725a.477.477,0,0,0-.477.477v8.168a1.193,1.193,0,1,1-1.193-1.193.477.477,0,0,0,.477-.477V7.757a.477.477,0,0,0-.477-.477A4.06,4.06,0,0,0,5,11.335a4.012,4.012,0,0,0,.763,2.385.484.484,0,0,0,.778-.577,3.072,3.072,0,0,1-.587-1.808A3.111,3.111,0,0,1,8.578,8.267v.954A2.147,2.147,0,1,0,11.2,11.335V3.644h.988a2.629,2.629,0,0,0,2.591,2.2,3.006,3.006,0,0,0,.358-.024V6.75a3.4,3.4,0,0,1-2.261-.4.477.477,0,0,0-.716.415v4.566A3.106,3.106,0,0,1,7.867,14.2a.477.477,0,0,0-.367.878,3.988,3.988,0,0,0,1.565.315,4.065,4.065,0,0,0,4.046-3.74.363.363,0,0,0,0-.076V7.509a4.356,4.356,0,0,0,2.634.076.477.477,0,0,0,.344-.477V5.223a.477.477,0,0,0-.21-.42Z" transform="translate(-5 -2.69)" fill="#3e4b78"/>
        </g>
        <g id="Twitter-4" data-name="Twitter" transform="translate(144 639.125)">
          <path id="Path_5193-4" data-name="Path 5193" d="M6.738,15.775a8.763,8.763,0,0,1-4.533-1.348.5.5,0,0,1,.559-.818,6.731,6.731,0,0,0,8.665-.892c1.838-2.3,1.838-3.166,1.838-5.063a.49.49,0,0,1,.4-.49l-.132-.059a.488.488,0,0,1,0-.872l.1-.054a1.1,1.1,0,0,1-.716-.137,3.034,3.034,0,0,0-2.49-.343c-.72.309-1.083,1.132-1.083,2.45a.49.49,0,0,1-.49.49,7.812,7.812,0,0,1-5.17-2.068A2.093,2.093,0,0,0,4.714,8.708a.49.49,0,0,1-.27.907,2.539,2.539,0,0,1-.667-.123,3.823,3.823,0,0,0,1.377,1.176.475.475,0,0,1-.221.907H4.7a1.96,1.96,0,0,0,1.705.98.49.49,0,0,1,.49.49c0,.72-.794.98-1.47.98a.49.49,0,0,1-.372-.809A3.279,3.279,0,0,1,3.465,11.2a.49.49,0,0,1,.088-.421v-.029A2.985,2.985,0,0,1,2.484,8.634a.488.488,0,0,1,.49-.49,3.1,3.1,0,0,1,.054-2.671.489.489,0,0,1,.784-.127A7.219,7.219,0,0,0,8.365,7.634c.152-1.818.98-2.553,1.705-2.847a4.047,4.047,0,0,1,3.362.421,2.334,2.334,0,0,0,1.446-.348.49.49,0,0,1,.784.568,3.563,3.563,0,0,1-.524.765.49.49,0,0,1,.524.7,2.21,2.21,0,0,1-1.416,1.171c0,1.759-.147,2.882-2.068,5.283l-.034.044a7.488,7.488,0,0,1-5.406,2.382Z" transform="translate(-1.989 -4.582)" fill="#3e4b78"/>
        </g>
        <g id="Instagram-4" data-name="Instagram" transform="translate(204.59 638.013)">
          <path id="Path_5194-4" data-name="Path 5194" d="M11.065,15.358H6.294A4.294,4.294,0,0,1,2,11.065V6.294A4.294,4.294,0,0,1,6.294,2h4.771a4.294,4.294,0,0,1,4.294,4.294v4.771A4.294,4.294,0,0,1,11.065,15.358ZM6.294,2.954a3.34,3.34,0,0,0-3.34,3.34v4.771a3.34,3.34,0,0,0,3.34,3.34h4.771a3.34,3.34,0,0,0,3.34-3.34V6.294a3.34,3.34,0,0,0-3.34-3.34Z" transform="translate(-2 -2)" fill="#3e4b78"/>
          <path id="Path_5195-4" data-name="Path 5195" d="M12.339,15.679a3.287,3.287,0,0,1-1.431-.315.477.477,0,1,1,.406-.864,2.385,2.385,0,1,0-1.054-.954.477.477,0,1,1-.825.477A3.306,3.306,0,0,1,9,12.34a3.34,3.34,0,1,1,3.34,3.34Z" transform="translate(-5.66 -5.667)" fill="#3e4b78"/>
          <circle id="Ellipse_472-4" data-name="Ellipse 472" cx="0.5" cy="0.5" r="0.5" transform="translate(9.884 2.667)" fill="#3e4b78"/>
        </g>
      </g>
      <g id="Group_10026" data-name="Group 10026" transform="translate(-63.474 -115)">
        <g id="Group_10024" data-name="Group 10024" transform="translate(-37.5 238.216)">
          <path id="Path_2785-2" data-name="Path 2785" d="M485.761,66.3a33.794,33.794,0,1,0-33.794,33.795A33.8,33.8,0,0,0,485.761,66.3Z" transform="translate(-268.283 416.067)" fill="#90dfaa" fill-rule="evenodd"/>
          <path id="Path_2786-2" data-name="Path 2786" d="M463.172,97.81c2.055-3.479,5.337-7.549,2.017-13.677-4.862-21.383,17.627-25.691,21.028-16.877,5.533,2.094,5.414,13.558,2.568,19.6-.158,2.45-2.727,4.624,1.938,10.988l.316-.039h0c-6.008,1.739-21.5.909-27.866,0Z" transform="translate(-294.231 398.507)" fill="#221f20" fill-rule="evenodd"/>
          <path id="Path_2787-2" data-name="Path 2787" d="M478.841,130.063a10.682,10.682,0,0,1-1.107,4.348,6.946,6.946,0,0,1-3.043,3.162c-4.19,3.715.552,3.4,8.893,8.262,8.893-5.02,13.439-4.467,9.05-8.142a6.7,6.7,0,0,1-3.043-3.281,11.214,11.214,0,0,1-.989-4.348s-3.32,2.569-5.375,2.174a13.055,13.055,0,0,1-4.388-2.174Z" transform="translate(-299.979 359.81)" fill="#f0b97d" fill-rule="evenodd"/>
          <path id="Path_2788-2" data-name="Path 2788" d="M484.723,76.848c-8.617,0-9.882,6.205-9.882,13.874,0,7.865,6.6,13.873,9.882,13.873,3.24,0,9.842-6.008,9.842-13.873,0-7.668-1.265-13.874-9.842-13.874Z" transform="translate(-300.96 390.495)" fill="#fed198" fill-rule="evenodd"/>
          <path id="Path_2789-2" data-name="Path 2789" d="M473.223,105.51c-.475-1.7-1.068-1.7-1.344-1.264s.632,2.094.671,3.478c0,1.383.434,1.581.95,1.067.473-.475-.276-3.281-.276-3.281Z" transform="translate(-299.221 374.837)" fill="#fed198" fill-rule="evenodd"/>
          <path id="Path_2790-2" data-name="Path 2790" d="M489.875,127.543a12.9,12.9,0,0,1,2.767-1.028c.276,0,.593.356.751.356.119,0,.434-.356.712-.356a12.934,12.934,0,0,1,2.765,1.028,5.861,5.861,0,0,1-.908.552,5.064,5.064,0,0,1-5.179,0,5.869,5.869,0,0,1-.908-.552Z" transform="translate(-309.629 361.856)" fill="#e26868" fill-rule="evenodd"/>
          <path id="Path_2791-2" data-name="Path 2791" d="M520.792,106.11c.395-1.5.948-1.5,1.186-1.146.237.4-.593,1.9-.593,3.123-.04,1.225-.4,1.384-.829.948-.475-.434.237-2.925.237-2.925Z" transform="translate(-327.226 374.395)" fill="#fed198" fill-rule="evenodd"/>
          <g id="Group_90-2" data-name="Group 90" transform="translate(173.087 460.114)">
            <text id="Lo-5" data-name="Lo" transform="translate(7.485 5)" font-size="5" font-family="SegoeUI, Segoe UI"><tspan x="0" y="0">Lo</tspan></text>
            <text id="re-5" data-name="re" transform="translate(0.776 11.096)" font-size="5" font-family="SegoeUI, Segoe UI"><tspan x="0" y="0">re</tspan></text>
            <text id="m_5" data-name="m " transform="translate(14.982 10.096)" font-size="4" font-family="SegoeUI, Segoe UI"><tspan x="0" y="0">m </tspan></text>
            <text id="i-5" data-name="i" transform="translate(0 17.193)" font-size="5" font-family="SegoeUI, Segoe UI"><tspan x="0" y="0">i</tspan></text>
          </g>
          <path id="Path_2792-2" data-name="Path 2792" d="M468.987,140.52c3.32,3.478,7.51,4.743,13.163,5.573a8.3,8.3,0,0,1,6.56,4.506,33.708,33.708,0,0,1-25.652,11.779h0A33.584,33.584,0,0,1,437.407,150.6a8.157,8.157,0,0,1,6.521-4.506c5.692-.83,9.842-2.055,13.162-5.534,7.47,6.6,4.427,6.561,11.9-.039Z" transform="translate(-279.375 353.78)" fill="#fefefe" fill-rule="evenodd"/>
          <path id="Path_2793-2" data-name="Path 2793" d="M475.311,149.95a37.227,37.227,0,0,0,6.839,1.581,8.3,8.3,0,0,1,6.56,4.506,33.774,33.774,0,0,1-24.623,11.779h-.277Zm-37.9,6.087a33.7,33.7,0,0,0,24.623,11.779h.238l-11.463-17.826a42.339,42.339,0,0,1-6.878,1.541,8.157,8.157,0,0,0-6.521,4.506Z" transform="translate(-279.375 348.342)" fill="#45a5ae" fill-rule="evenodd"/>
          <path id="Path_2794-2" data-name="Path 2794" d="M476.495,145.052l-.158-.237.158.237Z" transform="translate(-301.823 351.304)" fill="#699791" fill-rule="evenodd"/>
        </g>
        <g id="Group_10023" data-name="Group 10023" transform="translate(-32.474 152.321)">
          <g id="Snapchat-5" data-name="Snapchat" transform="translate(164.992 638.569)">
            <path id="Path_5191-5" data-name="Path 5191" d="M8.687,15.341a3.025,3.025,0,0,1-1.617-.425.478.478,0,1,1,.491-.821,2.018,2.018,0,0,0,1.126.291,2.218,2.218,0,0,0,1.5-.544,1.846,1.846,0,0,1,1.908-.386.816.816,0,0,0,.219.052,1.908,1.908,0,0,0,.048-.248.954.954,0,0,1,.439-.782.811.811,0,0,1,.773.057.415.415,0,0,0,.382,0,.787.787,0,0,0,.153-.086,4.508,4.508,0,0,1-1.431-.477c-1.2-.611-1.2-2.266-1.2-2.81s.592-.806,1.021-.954a2.905,2.905,0,0,0,.358-.134.119.119,0,0,0-.043-.062c-.057-.038-.248-.057-.6.1a.611.611,0,0,1-.63.1c-.181-.081-.563-.253-.477-1.966a2.447,2.447,0,0,0-4.866.029c.1,1.684-.281,1.856-.477,1.937a.611.611,0,0,1-.63-.1c-.353-.157-.544-.138-.6-.1a.119.119,0,0,0-.043.062,2.905,2.905,0,0,0,.358.134c.434.148,1.026.348,1.026.93s0,2.2-1.2,2.81a4.509,4.509,0,0,1-1.431.477.787.787,0,0,0,.153.086.415.415,0,0,0,.382,0,.811.811,0,0,1,.787-.033.954.954,0,0,1,.425.787,1.908,1.908,0,0,0,.048.248.816.816,0,0,0,.219-.052,1.947,1.947,0,0,1,.9-.1.484.484,0,0,1-.129.959,1,1,0,0,0-.477.067,1.2,1.2,0,0,1-1.035-.029,1.15,1.15,0,0,1-.458-.921,1.5,1.5,0,0,1-1.522-.372c-.324-.291-.644-.773-.477-1.183a.577.577,0,0,1,.549-.353A3.034,3.034,0,0,0,4.264,11.1c.615-.315.668-1.36.673-1.842a3.869,3.869,0,0,0-.377-.143c-.434-.148-1.026-.348-1.026-.93a1.121,1.121,0,0,1,.477-.978,1.431,1.431,0,0,1,1.255-.062,8.2,8.2,0,0,0,0-.84,3.411,3.411,0,1,1,6.822-.029,7.591,7.591,0,0,0,0,.868,1.431,1.431,0,0,1,1.255.062,1.121,1.121,0,0,1,.5.978c0,.582-.592.782-1.026.93a3.869,3.869,0,0,0-.377.143c0,.477.057,1.527.673,1.842a3.034,3.034,0,0,0,1.655.425.577.577,0,0,1,.558.372c.157.41-.162.892-.477,1.183a1.5,1.5,0,0,1-1.531.353,1.15,1.15,0,0,1-.477.883,1.2,1.2,0,0,1-1.035.029c-.477-.167-.663-.033-1.054.253a3.177,3.177,0,0,1-2.061.744ZM13.081,13.352ZM4.293,13.352Z" transform="translate(-2.014 -2.88)" fill="#3e4b78"/>
          </g>
          <g id="Tiktok-5" data-name="Tiktok" transform="translate(185.984 638.568)">
            <path id="Path_5192-5" data-name="Path 5192" d="M15.877,4.8a.477.477,0,0,0-.448-.057A1.665,1.665,0,0,1,13.11,3.181a.48.48,0,0,0-.477-.491H10.725a.477.477,0,0,0-.477.477v8.168a1.193,1.193,0,1,1-1.193-1.193.477.477,0,0,0,.477-.477V7.757a.477.477,0,0,0-.477-.477A4.06,4.06,0,0,0,5,11.335a4.012,4.012,0,0,0,.763,2.385.484.484,0,0,0,.778-.577,3.072,3.072,0,0,1-.587-1.808A3.111,3.111,0,0,1,8.578,8.267v.954A2.147,2.147,0,1,0,11.2,11.335V3.644h.988a2.629,2.629,0,0,0,2.591,2.2,3.006,3.006,0,0,0,.358-.024V6.75a3.4,3.4,0,0,1-2.261-.4.477.477,0,0,0-.716.415v4.566A3.106,3.106,0,0,1,7.867,14.2a.477.477,0,0,0-.367.878,3.988,3.988,0,0,0,1.565.315,4.065,4.065,0,0,0,4.046-3.74.363.363,0,0,0,0-.076V7.509a4.356,4.356,0,0,0,2.634.076.477.477,0,0,0,.344-.477V5.223a.477.477,0,0,0-.21-.42Z" transform="translate(-5 -2.69)" fill="#3e4b78"/>
          </g>
          <g id="Twitter-5" data-name="Twitter" transform="translate(144 639.125)">
            <path id="Path_5193-5" data-name="Path 5193" d="M6.738,15.775a8.763,8.763,0,0,1-4.533-1.348.5.5,0,0,1,.559-.818,6.731,6.731,0,0,0,8.665-.892c1.838-2.3,1.838-3.166,1.838-5.063a.49.49,0,0,1,.4-.49l-.132-.059a.488.488,0,0,1,0-.872l.1-.054a1.1,1.1,0,0,1-.716-.137,3.034,3.034,0,0,0-2.49-.343c-.72.309-1.083,1.132-1.083,2.45a.49.49,0,0,1-.49.49,7.812,7.812,0,0,1-5.17-2.068A2.093,2.093,0,0,0,4.714,8.708a.49.49,0,0,1-.27.907,2.539,2.539,0,0,1-.667-.123,3.823,3.823,0,0,0,1.377,1.176.475.475,0,0,1-.221.907H4.7a1.96,1.96,0,0,0,1.705.98.49.49,0,0,1,.49.49c0,.72-.794.98-1.47.98a.49.49,0,0,1-.372-.809A3.279,3.279,0,0,1,3.465,11.2a.49.49,0,0,1,.088-.421v-.029A2.985,2.985,0,0,1,2.484,8.634a.488.488,0,0,1,.49-.49,3.1,3.1,0,0,1,.054-2.671.489.489,0,0,1,.784-.127A7.219,7.219,0,0,0,8.365,7.634c.152-1.818.98-2.553,1.705-2.847a4.047,4.047,0,0,1,3.362.421,2.334,2.334,0,0,0,1.446-.348.49.49,0,0,1,.784.568,3.563,3.563,0,0,1-.524.765.49.49,0,0,1,.524.7,2.21,2.21,0,0,1-1.416,1.171c0,1.759-.147,2.882-2.068,5.283l-.034.044a7.488,7.488,0,0,1-5.406,2.382Z" transform="translate(-1.989 -4.582)" fill="#3e4b78"/>
          </g>
          <g id="Instagram-5" data-name="Instagram" transform="translate(204.59 638.013)">
            <path id="Path_5194-5" data-name="Path 5194" d="M11.065,15.358H6.294A4.294,4.294,0,0,1,2,11.065V6.294A4.294,4.294,0,0,1,6.294,2h4.771a4.294,4.294,0,0,1,4.294,4.294v4.771A4.294,4.294,0,0,1,11.065,15.358ZM6.294,2.954a3.34,3.34,0,0,0-3.34,3.34v4.771a3.34,3.34,0,0,0,3.34,3.34h4.771a3.34,3.34,0,0,0,3.34-3.34V6.294a3.34,3.34,0,0,0-3.34-3.34Z" transform="translate(-2 -2)" fill="#3e4b78"/>
            <path id="Path_5195-5" data-name="Path 5195" d="M12.339,15.679a3.287,3.287,0,0,1-1.431-.315.477.477,0,1,1,.406-.864,2.385,2.385,0,1,0-1.054-.954.477.477,0,1,1-.825.477A3.306,3.306,0,0,1,9,12.34a3.34,3.34,0,1,1,3.34,3.34Z" transform="translate(-5.66 -5.667)" fill="#3e4b78"/>
            <circle id="Ellipse_472-5" data-name="Ellipse 472" cx="0.5" cy="0.5" r="0.5" transform="translate(9.884 2.667)" fill="#3e4b78"/>
          </g>
        </g>
        <g id="Group_10025" data-name="Group 10025" transform="translate(-29.611 135.615)">
          <g id="Group_68-5" data-name="Group 68" transform="translate(134.111 625.6)">
            <g id="Group_52-5" data-name="Group 52" transform="translate(0 2)">
              <rect id="Rectangle_9-5" data-name="Rectangle 9" width="92" height="21" rx="9" transform="translate(0 0)" fill="#07ab9f"/>
            </g>
            <text id="_..........................-5" data-name=".........................." transform="translate(13 15)" fill="#e4e4e4" font-size="12" font-family="SegoeUI, Segoe UI"><tspan x="0" y="0">..........................</tspan></text>
          </g>
        </g>
      </g>
      <g id="Group_10027" data-name="Group 10027" transform="translate(68.5 -115)">
        <g id="Group_10024-2" data-name="Group 10024" transform="translate(-37.5 238.216)">
          <path id="Path_2785-3" data-name="Path 2785" d="M485.761,66.3a33.794,33.794,0,1,0-33.794,33.795A33.8,33.8,0,0,0,485.761,66.3Z" transform="translate(-268.283 416.067)" fill="#90dfaa" fill-rule="evenodd"/>
          <path id="Path_2786-3" data-name="Path 2786" d="M463.172,97.81c2.055-3.479,5.337-7.549,2.017-13.677-4.862-21.383,17.627-25.691,21.028-16.877,5.533,2.094,5.414,13.558,2.568,19.6-.158,2.45-2.727,4.624,1.938,10.988l.316-.039h0c-6.008,1.739-21.5.909-27.866,0Z" transform="translate(-294.231 398.507)" fill="#221f20" fill-rule="evenodd"/>
          <path id="Path_2787-3" data-name="Path 2787" d="M478.841,130.063a10.682,10.682,0,0,1-1.107,4.348,6.946,6.946,0,0,1-3.043,3.162c-4.19,3.715.552,3.4,8.893,8.262,8.893-5.02,13.439-4.467,9.05-8.142a6.7,6.7,0,0,1-3.043-3.281,11.214,11.214,0,0,1-.989-4.348s-3.32,2.569-5.375,2.174a13.055,13.055,0,0,1-4.388-2.174Z" transform="translate(-299.979 359.81)" fill="#f0b97d" fill-rule="evenodd"/>
          <path id="Path_2788-3" data-name="Path 2788" d="M484.723,76.848c-8.617,0-9.882,6.205-9.882,13.874,0,7.865,6.6,13.873,9.882,13.873,3.24,0,9.842-6.008,9.842-13.873,0-7.668-1.265-13.874-9.842-13.874Z" transform="translate(-300.96 390.495)" fill="#fed198" fill-rule="evenodd"/>
          <path id="Path_2789-3" data-name="Path 2789" d="M473.223,105.51c-.475-1.7-1.068-1.7-1.344-1.264s.632,2.094.671,3.478c0,1.383.434,1.581.95,1.067.473-.475-.276-3.281-.276-3.281Z" transform="translate(-299.221 374.837)" fill="#fed198" fill-rule="evenodd"/>
          <path id="Path_2790-3" data-name="Path 2790" d="M489.875,127.543a12.9,12.9,0,0,1,2.767-1.028c.276,0,.593.356.751.356.119,0,.434-.356.712-.356a12.934,12.934,0,0,1,2.765,1.028,5.861,5.861,0,0,1-.908.552,5.064,5.064,0,0,1-5.179,0,5.869,5.869,0,0,1-.908-.552Z" transform="translate(-309.629 361.856)" fill="#e26868" fill-rule="evenodd"/>
          <path id="Path_2791-3" data-name="Path 2791" d="M520.792,106.11c.395-1.5.948-1.5,1.186-1.146.237.4-.593,1.9-.593,3.123-.04,1.225-.4,1.384-.829.948-.475-.434.237-2.925.237-2.925Z" transform="translate(-327.226 374.395)" fill="#fed198" fill-rule="evenodd"/>
          <g id="Group_90-3" data-name="Group 90" transform="translate(173.087 460.114)">
            <text id="Lo-6" data-name="Lo" transform="translate(7.485 5)" font-size="5" font-family="SegoeUI, Segoe UI"><tspan x="0" y="0">Lo</tspan></text>
            <text id="re-6" data-name="re" transform="translate(0.776 11.096)" font-size="5" font-family="SegoeUI, Segoe UI"><tspan x="0" y="0">re</tspan></text>
            <text id="m_6" data-name="m " transform="translate(14.982 10.096)" font-size="4" font-family="SegoeUI, Segoe UI"><tspan x="0" y="0">m </tspan></text>
            <text id="i-6" data-name="i" transform="translate(0 17.193)" font-size="5" font-family="SegoeUI, Segoe UI"><tspan x="0" y="0">i</tspan></text>
          </g>
          <path id="Path_2792-3" data-name="Path 2792" d="M468.987,140.52c3.32,3.478,7.51,4.743,13.163,5.573a8.3,8.3,0,0,1,6.56,4.506,33.708,33.708,0,0,1-25.652,11.779h0A33.584,33.584,0,0,1,437.407,150.6a8.157,8.157,0,0,1,6.521-4.506c5.692-.83,9.842-2.055,13.162-5.534,7.47,6.6,4.427,6.561,11.9-.039Z" transform="translate(-279.375 353.78)" fill="#fefefe" fill-rule="evenodd"/>
          <path id="Path_2793-3" data-name="Path 2793" d="M475.311,149.95a37.227,37.227,0,0,0,6.839,1.581,8.3,8.3,0,0,1,6.56,4.506,33.774,33.774,0,0,1-24.623,11.779h-.277Zm-37.9,6.087a33.7,33.7,0,0,0,24.623,11.779h.238l-11.463-17.826a42.339,42.339,0,0,1-6.878,1.541,8.157,8.157,0,0,0-6.521,4.506Z" transform="translate(-279.375 348.342)" fill="#45a5ae" fill-rule="evenodd"/>
          <path id="Path_2794-3" data-name="Path 2794" d="M476.495,145.052l-.158-.237.158.237Z" transform="translate(-301.823 351.304)" fill="#699791" fill-rule="evenodd"/>
        </g>
        <g id="Group_10023-2" data-name="Group 10023" transform="translate(-32.474 152.321)">
          <g id="Snapchat-6" data-name="Snapchat" transform="translate(164.992 638.569)">
            <path id="Path_5191-6" data-name="Path 5191" d="M8.687,15.341a3.025,3.025,0,0,1-1.617-.425.478.478,0,1,1,.491-.821,2.018,2.018,0,0,0,1.126.291,2.218,2.218,0,0,0,1.5-.544,1.846,1.846,0,0,1,1.908-.386.816.816,0,0,0,.219.052,1.908,1.908,0,0,0,.048-.248.954.954,0,0,1,.439-.782.811.811,0,0,1,.773.057.415.415,0,0,0,.382,0,.787.787,0,0,0,.153-.086,4.508,4.508,0,0,1-1.431-.477c-1.2-.611-1.2-2.266-1.2-2.81s.592-.806,1.021-.954a2.905,2.905,0,0,0,.358-.134.119.119,0,0,0-.043-.062c-.057-.038-.248-.057-.6.1a.611.611,0,0,1-.63.1c-.181-.081-.563-.253-.477-1.966a2.447,2.447,0,0,0-4.866.029c.1,1.684-.281,1.856-.477,1.937a.611.611,0,0,1-.63-.1c-.353-.157-.544-.138-.6-.1a.119.119,0,0,0-.043.062,2.905,2.905,0,0,0,.358.134c.434.148,1.026.348,1.026.93s0,2.2-1.2,2.81a4.509,4.509,0,0,1-1.431.477.787.787,0,0,0,.153.086.415.415,0,0,0,.382,0,.811.811,0,0,1,.787-.033.954.954,0,0,1,.425.787,1.908,1.908,0,0,0,.048.248.816.816,0,0,0,.219-.052,1.947,1.947,0,0,1,.9-.1.484.484,0,0,1-.129.959,1,1,0,0,0-.477.067,1.2,1.2,0,0,1-1.035-.029,1.15,1.15,0,0,1-.458-.921,1.5,1.5,0,0,1-1.522-.372c-.324-.291-.644-.773-.477-1.183a.577.577,0,0,1,.549-.353A3.034,3.034,0,0,0,4.264,11.1c.615-.315.668-1.36.673-1.842a3.869,3.869,0,0,0-.377-.143c-.434-.148-1.026-.348-1.026-.93a1.121,1.121,0,0,1,.477-.978,1.431,1.431,0,0,1,1.255-.062,8.2,8.2,0,0,0,0-.84,3.411,3.411,0,1,1,6.822-.029,7.591,7.591,0,0,0,0,.868,1.431,1.431,0,0,1,1.255.062,1.121,1.121,0,0,1,.5.978c0,.582-.592.782-1.026.93a3.869,3.869,0,0,0-.377.143c0,.477.057,1.527.673,1.842a3.034,3.034,0,0,0,1.655.425.577.577,0,0,1,.558.372c.157.41-.162.892-.477,1.183a1.5,1.5,0,0,1-1.531.353,1.15,1.15,0,0,1-.477.883,1.2,1.2,0,0,1-1.035.029c-.477-.167-.663-.033-1.054.253a3.177,3.177,0,0,1-2.061.744ZM13.081,13.352ZM4.293,13.352Z" transform="translate(-2.014 -2.88)" fill="#3e4b78"/>
          </g>
          <g id="Tiktok-6" data-name="Tiktok" transform="translate(185.984 638.568)">
            <path id="Path_5192-6" data-name="Path 5192" d="M15.877,4.8a.477.477,0,0,0-.448-.057A1.665,1.665,0,0,1,13.11,3.181a.48.48,0,0,0-.477-.491H10.725a.477.477,0,0,0-.477.477v8.168a1.193,1.193,0,1,1-1.193-1.193.477.477,0,0,0,.477-.477V7.757a.477.477,0,0,0-.477-.477A4.06,4.06,0,0,0,5,11.335a4.012,4.012,0,0,0,.763,2.385.484.484,0,0,0,.778-.577,3.072,3.072,0,0,1-.587-1.808A3.111,3.111,0,0,1,8.578,8.267v.954A2.147,2.147,0,1,0,11.2,11.335V3.644h.988a2.629,2.629,0,0,0,2.591,2.2,3.006,3.006,0,0,0,.358-.024V6.75a3.4,3.4,0,0,1-2.261-.4.477.477,0,0,0-.716.415v4.566A3.106,3.106,0,0,1,7.867,14.2a.477.477,0,0,0-.367.878,3.988,3.988,0,0,0,1.565.315,4.065,4.065,0,0,0,4.046-3.74.363.363,0,0,0,0-.076V7.509a4.356,4.356,0,0,0,2.634.076.477.477,0,0,0,.344-.477V5.223a.477.477,0,0,0-.21-.42Z" transform="translate(-5 -2.69)" fill="#3e4b78"/>
          </g>
          <g id="Twitter-6" data-name="Twitter" transform="translate(144 639.125)">
            <path id="Path_5193-6" data-name="Path 5193" d="M6.738,15.775a8.763,8.763,0,0,1-4.533-1.348.5.5,0,0,1,.559-.818,6.731,6.731,0,0,0,8.665-.892c1.838-2.3,1.838-3.166,1.838-5.063a.49.49,0,0,1,.4-.49l-.132-.059a.488.488,0,0,1,0-.872l.1-.054a1.1,1.1,0,0,1-.716-.137,3.034,3.034,0,0,0-2.49-.343c-.72.309-1.083,1.132-1.083,2.45a.49.49,0,0,1-.49.49,7.812,7.812,0,0,1-5.17-2.068A2.093,2.093,0,0,0,4.714,8.708a.49.49,0,0,1-.27.907,2.539,2.539,0,0,1-.667-.123,3.823,3.823,0,0,0,1.377,1.176.475.475,0,0,1-.221.907H4.7a1.96,1.96,0,0,0,1.705.98.49.49,0,0,1,.49.49c0,.72-.794.98-1.47.98a.49.49,0,0,1-.372-.809A3.279,3.279,0,0,1,3.465,11.2a.49.49,0,0,1,.088-.421v-.029A2.985,2.985,0,0,1,2.484,8.634a.488.488,0,0,1,.49-.49,3.1,3.1,0,0,1,.054-2.671.489.489,0,0,1,.784-.127A7.219,7.219,0,0,0,8.365,7.634c.152-1.818.98-2.553,1.705-2.847a4.047,4.047,0,0,1,3.362.421,2.334,2.334,0,0,0,1.446-.348.49.49,0,0,1,.784.568,3.563,3.563,0,0,1-.524.765.49.49,0,0,1,.524.7,2.21,2.21,0,0,1-1.416,1.171c0,1.759-.147,2.882-2.068,5.283l-.034.044a7.488,7.488,0,0,1-5.406,2.382Z" transform="translate(-1.989 -4.582)" fill="#3e4b78"/>
          </g>
          <g id="Instagram-6" data-name="Instagram" transform="translate(204.59 638.013)">
            <path id="Path_5194-6" data-name="Path 5194" d="M11.065,15.358H6.294A4.294,4.294,0,0,1,2,11.065V6.294A4.294,4.294,0,0,1,6.294,2h4.771a4.294,4.294,0,0,1,4.294,4.294v4.771A4.294,4.294,0,0,1,11.065,15.358ZM6.294,2.954a3.34,3.34,0,0,0-3.34,3.34v4.771a3.34,3.34,0,0,0,3.34,3.34h4.771a3.34,3.34,0,0,0,3.34-3.34V6.294a3.34,3.34,0,0,0-3.34-3.34Z" transform="translate(-2 -2)" fill="#3e4b78"/>
            <path id="Path_5195-6" data-name="Path 5195" d="M12.339,15.679a3.287,3.287,0,0,1-1.431-.315.477.477,0,1,1,.406-.864,2.385,2.385,0,1,0-1.054-.954.477.477,0,1,1-.825.477A3.306,3.306,0,0,1,9,12.34a3.34,3.34,0,1,1,3.34,3.34Z" transform="translate(-5.66 -5.667)" fill="#3e4b78"/>
            <circle id="Ellipse_472-6" data-name="Ellipse 472" cx="0.5" cy="0.5" r="0.5" transform="translate(9.884 2.667)" fill="#3e4b78"/>
          </g>
        </g>
        <g id="Group_10025-2" data-name="Group 10025" transform="translate(-29.611 135.615)">
          <g id="Group_68-6" data-name="Group 68" transform="translate(134.111 625.6)">
            <g id="Group_52-6" data-name="Group 52" transform="translate(0 2)">
              <rect id="Rectangle_9-6" data-name="Rectangle 9" width="92" height="21" rx="9" transform="translate(0 0)" fill="#07ab9f"/>
            </g>
            <text id="_..........................-6" data-name=".........................." transform="translate(13 15)" fill="#e4e4e4" font-size="12" font-family="SegoeUI, Segoe UI"><tspan x="0" y="0">..........................</tspan></text>
          </g>
        </g>
      </g>
      <g id="Group_10028" data-name="Group 10028" transform="translate(198.867 -123)">
        <g id="Group_10024-3" data-name="Group 10024" transform="translate(-37.5 238.216)">
          <path id="Path_2785-4" data-name="Path 2785" d="M485.761,66.3a33.794,33.794,0,1,0-33.794,33.795A33.8,33.8,0,0,0,485.761,66.3Z" transform="translate(-268.283 416.067)" fill="#90dfaa" fill-rule="evenodd"/>
          <path id="Path_2786-4" data-name="Path 2786" d="M463.172,97.81c2.055-3.479,5.337-7.549,2.017-13.677-4.862-21.383,17.627-25.691,21.028-16.877,5.533,2.094,5.414,13.558,2.568,19.6-.158,2.45-2.727,4.624,1.938,10.988l.316-.039h0c-6.008,1.739-21.5.909-27.866,0Z" transform="translate(-294.231 398.507)" fill="#221f20" fill-rule="evenodd"/>
          <path id="Path_2787-4" data-name="Path 2787" d="M478.841,130.063a10.682,10.682,0,0,1-1.107,4.348,6.946,6.946,0,0,1-3.043,3.162c-4.19,3.715.552,3.4,8.893,8.262,8.893-5.02,13.439-4.467,9.05-8.142a6.7,6.7,0,0,1-3.043-3.281,11.214,11.214,0,0,1-.989-4.348s-3.32,2.569-5.375,2.174a13.055,13.055,0,0,1-4.388-2.174Z" transform="translate(-299.979 359.81)" fill="#f0b97d" fill-rule="evenodd"/>
          <path id="Path_2788-4" data-name="Path 2788" d="M484.723,76.848c-8.617,0-9.882,6.205-9.882,13.874,0,7.865,6.6,13.873,9.882,13.873,3.24,0,9.842-6.008,9.842-13.873,0-7.668-1.265-13.874-9.842-13.874Z" transform="translate(-300.96 390.495)" fill="#fed198" fill-rule="evenodd"/>
          <path id="Path_2789-4" data-name="Path 2789" d="M473.223,105.51c-.475-1.7-1.068-1.7-1.344-1.264s.632,2.094.671,3.478c0,1.383.434,1.581.95,1.067.473-.475-.276-3.281-.276-3.281Z" transform="translate(-299.221 374.837)" fill="#fed198" fill-rule="evenodd"/>
          <path id="Path_2790-4" data-name="Path 2790" d="M489.875,127.543a12.9,12.9,0,0,1,2.767-1.028c.276,0,.593.356.751.356.119,0,.434-.356.712-.356a12.934,12.934,0,0,1,2.765,1.028,5.861,5.861,0,0,1-.908.552,5.064,5.064,0,0,1-5.179,0,5.869,5.869,0,0,1-.908-.552Z" transform="translate(-309.629 361.856)" fill="#e26868" fill-rule="evenodd"/>
          <path id="Path_2791-4" data-name="Path 2791" d="M520.792,106.11c.395-1.5.948-1.5,1.186-1.146.237.4-.593,1.9-.593,3.123-.04,1.225-.4,1.384-.829.948-.475-.434.237-2.925.237-2.925Z" transform="translate(-327.226 374.395)" fill="#fed198" fill-rule="evenodd"/>
          <g id="Group_90-4" data-name="Group 90" transform="translate(173.087 460.114)">
            <text id="Lo-7" data-name="Lo" transform="translate(7.485 5)" font-size="5" font-family="SegoeUI, Segoe UI"><tspan x="0" y="0">Lo</tspan></text>
            <text id="re-7" data-name="re" transform="translate(0.776 11.096)" font-size="5" font-family="SegoeUI, Segoe UI"><tspan x="0" y="0">re</tspan></text>
            <text id="m_7" data-name="m " transform="translate(14.982 10.096)" font-size="4" font-family="SegoeUI, Segoe UI"><tspan x="0" y="0">m </tspan></text>
            <text id="i-7" data-name="i" transform="translate(0 17.193)" font-size="5" font-family="SegoeUI, Segoe UI"><tspan x="0" y="0">i</tspan></text>
          </g>
          <path id="Path_2792-4" data-name="Path 2792" d="M468.987,140.52c3.32,3.478,7.51,4.743,13.163,5.573a8.3,8.3,0,0,1,6.56,4.506,33.708,33.708,0,0,1-25.652,11.779h0A33.584,33.584,0,0,1,437.407,150.6a8.157,8.157,0,0,1,6.521-4.506c5.692-.83,9.842-2.055,13.162-5.534,7.47,6.6,4.427,6.561,11.9-.039Z" transform="translate(-279.375 353.78)" fill="#fefefe" fill-rule="evenodd"/>
          <path id="Path_2793-4" data-name="Path 2793" d="M475.311,149.95a37.227,37.227,0,0,0,6.839,1.581,8.3,8.3,0,0,1,6.56,4.506,33.774,33.774,0,0,1-24.623,11.779h-.277Zm-37.9,6.087a33.7,33.7,0,0,0,24.623,11.779h.238l-11.463-17.826a42.339,42.339,0,0,1-6.878,1.541,8.157,8.157,0,0,0-6.521,4.506Z" transform="translate(-279.375 348.342)" fill="#45a5ae" fill-rule="evenodd"/>
          <path id="Path_2794-4" data-name="Path 2794" d="M476.495,145.052l-.158-.237.158.237Z" transform="translate(-301.823 351.304)" fill="#699791" fill-rule="evenodd"/>
        </g>
        <g id="Group_10023-3" data-name="Group 10023" transform="translate(-32.474 152.321)">
          <g id="Snapchat-7" data-name="Snapchat" transform="translate(164.992 638.569)">
            <path id="Path_5191-7" data-name="Path 5191" d="M8.687,15.341a3.025,3.025,0,0,1-1.617-.425.478.478,0,1,1,.491-.821,2.018,2.018,0,0,0,1.126.291,2.218,2.218,0,0,0,1.5-.544,1.846,1.846,0,0,1,1.908-.386.816.816,0,0,0,.219.052,1.908,1.908,0,0,0,.048-.248.954.954,0,0,1,.439-.782.811.811,0,0,1,.773.057.415.415,0,0,0,.382,0,.787.787,0,0,0,.153-.086,4.508,4.508,0,0,1-1.431-.477c-1.2-.611-1.2-2.266-1.2-2.81s.592-.806,1.021-.954a2.905,2.905,0,0,0,.358-.134.119.119,0,0,0-.043-.062c-.057-.038-.248-.057-.6.1a.611.611,0,0,1-.63.1c-.181-.081-.563-.253-.477-1.966a2.447,2.447,0,0,0-4.866.029c.1,1.684-.281,1.856-.477,1.937a.611.611,0,0,1-.63-.1c-.353-.157-.544-.138-.6-.1a.119.119,0,0,0-.043.062,2.905,2.905,0,0,0,.358.134c.434.148,1.026.348,1.026.93s0,2.2-1.2,2.81a4.509,4.509,0,0,1-1.431.477.787.787,0,0,0,.153.086.415.415,0,0,0,.382,0,.811.811,0,0,1,.787-.033.954.954,0,0,1,.425.787,1.908,1.908,0,0,0,.048.248.816.816,0,0,0,.219-.052,1.947,1.947,0,0,1,.9-.1.484.484,0,0,1-.129.959,1,1,0,0,0-.477.067,1.2,1.2,0,0,1-1.035-.029,1.15,1.15,0,0,1-.458-.921,1.5,1.5,0,0,1-1.522-.372c-.324-.291-.644-.773-.477-1.183a.577.577,0,0,1,.549-.353A3.034,3.034,0,0,0,4.264,11.1c.615-.315.668-1.36.673-1.842a3.869,3.869,0,0,0-.377-.143c-.434-.148-1.026-.348-1.026-.93a1.121,1.121,0,0,1,.477-.978,1.431,1.431,0,0,1,1.255-.062,8.2,8.2,0,0,0,0-.84,3.411,3.411,0,1,1,6.822-.029,7.591,7.591,0,0,0,0,.868,1.431,1.431,0,0,1,1.255.062,1.121,1.121,0,0,1,.5.978c0,.582-.592.782-1.026.93a3.869,3.869,0,0,0-.377.143c0,.477.057,1.527.673,1.842a3.034,3.034,0,0,0,1.655.425.577.577,0,0,1,.558.372c.157.41-.162.892-.477,1.183a1.5,1.5,0,0,1-1.531.353,1.15,1.15,0,0,1-.477.883,1.2,1.2,0,0,1-1.035.029c-.477-.167-.663-.033-1.054.253a3.177,3.177,0,0,1-2.061.744ZM13.081,13.352ZM4.293,13.352Z" transform="translate(-2.014 -2.88)" fill="#3e4b78"/>
          </g>
          <g id="Tiktok-7" data-name="Tiktok" transform="translate(185.984 638.568)">
            <path id="Path_5192-7" data-name="Path 5192" d="M15.877,4.8a.477.477,0,0,0-.448-.057A1.665,1.665,0,0,1,13.11,3.181a.48.48,0,0,0-.477-.491H10.725a.477.477,0,0,0-.477.477v8.168a1.193,1.193,0,1,1-1.193-1.193.477.477,0,0,0,.477-.477V7.757a.477.477,0,0,0-.477-.477A4.06,4.06,0,0,0,5,11.335a4.012,4.012,0,0,0,.763,2.385.484.484,0,0,0,.778-.577,3.072,3.072,0,0,1-.587-1.808A3.111,3.111,0,0,1,8.578,8.267v.954A2.147,2.147,0,1,0,11.2,11.335V3.644h.988a2.629,2.629,0,0,0,2.591,2.2,3.006,3.006,0,0,0,.358-.024V6.75a3.4,3.4,0,0,1-2.261-.4.477.477,0,0,0-.716.415v4.566A3.106,3.106,0,0,1,7.867,14.2a.477.477,0,0,0-.367.878,3.988,3.988,0,0,0,1.565.315,4.065,4.065,0,0,0,4.046-3.74.363.363,0,0,0,0-.076V7.509a4.356,4.356,0,0,0,2.634.076.477.477,0,0,0,.344-.477V5.223a.477.477,0,0,0-.21-.42Z" transform="translate(-5 -2.69)" fill="#3e4b78"/>
          </g>
          <g id="Twitter-7" data-name="Twitter" transform="translate(144 639.125)">
            <path id="Path_5193-7" data-name="Path 5193" d="M6.738,15.775a8.763,8.763,0,0,1-4.533-1.348.5.5,0,0,1,.559-.818,6.731,6.731,0,0,0,8.665-.892c1.838-2.3,1.838-3.166,1.838-5.063a.49.49,0,0,1,.4-.49l-.132-.059a.488.488,0,0,1,0-.872l.1-.054a1.1,1.1,0,0,1-.716-.137,3.034,3.034,0,0,0-2.49-.343c-.72.309-1.083,1.132-1.083,2.45a.49.49,0,0,1-.49.49,7.812,7.812,0,0,1-5.17-2.068A2.093,2.093,0,0,0,4.714,8.708a.49.49,0,0,1-.27.907,2.539,2.539,0,0,1-.667-.123,3.823,3.823,0,0,0,1.377,1.176.475.475,0,0,1-.221.907H4.7a1.96,1.96,0,0,0,1.705.98.49.49,0,0,1,.49.49c0,.72-.794.98-1.47.98a.49.49,0,0,1-.372-.809A3.279,3.279,0,0,1,3.465,11.2a.49.49,0,0,1,.088-.421v-.029A2.985,2.985,0,0,1,2.484,8.634a.488.488,0,0,1,.49-.49,3.1,3.1,0,0,1,.054-2.671.489.489,0,0,1,.784-.127A7.219,7.219,0,0,0,8.365,7.634c.152-1.818.98-2.553,1.705-2.847a4.047,4.047,0,0,1,3.362.421,2.334,2.334,0,0,0,1.446-.348.49.49,0,0,1,.784.568,3.563,3.563,0,0,1-.524.765.49.49,0,0,1,.524.7,2.21,2.21,0,0,1-1.416,1.171c0,1.759-.147,2.882-2.068,5.283l-.034.044a7.488,7.488,0,0,1-5.406,2.382Z" transform="translate(-1.989 -4.582)" fill="#3e4b78"/>
          </g>
          <g id="Instagram-7" data-name="Instagram" transform="translate(204.59 638.013)">
            <path id="Path_5194-7" data-name="Path 5194" d="M11.065,15.358H6.294A4.294,4.294,0,0,1,2,11.065V6.294A4.294,4.294,0,0,1,6.294,2h4.771a4.294,4.294,0,0,1,4.294,4.294v4.771A4.294,4.294,0,0,1,11.065,15.358ZM6.294,2.954a3.34,3.34,0,0,0-3.34,3.34v4.771a3.34,3.34,0,0,0,3.34,3.34h4.771a3.34,3.34,0,0,0,3.34-3.34V6.294a3.34,3.34,0,0,0-3.34-3.34Z" transform="translate(-2 -2)" fill="#3e4b78"/>
            <path id="Path_5195-7" data-name="Path 5195" d="M12.339,15.679a3.287,3.287,0,0,1-1.431-.315.477.477,0,1,1,.406-.864,2.385,2.385,0,1,0-1.054-.954.477.477,0,1,1-.825.477A3.306,3.306,0,0,1,9,12.34a3.34,3.34,0,1,1,3.34,3.34Z" transform="translate(-5.66 -5.667)" fill="#3e4b78"/>
            <circle id="Ellipse_472-7" data-name="Ellipse 472" cx="0.5" cy="0.5" r="0.5" transform="translate(9.884 2.667)" fill="#3e4b78"/>
          </g>
        </g>
        <g id="Group_10025-3" data-name="Group 10025" transform="translate(-29.611 135.615)">
          <g id="Group_68-7" data-name="Group 68" transform="translate(134.111 625.6)">
            <g id="Group_52-7" data-name="Group 52" transform="translate(0 2)">
              <rect id="Rectangle_9-7" data-name="Rectangle 9" width="92" height="21" rx="9" transform="translate(0 0)" fill="#07ab9f"/>
            </g>
            <text id="_..........................-7" data-name=".........................." transform="translate(13 15)" fill="#e4e4e4" font-size="12" font-family="SegoeUI, Segoe UI"><tspan x="0" y="0">..........................</tspan></text>
          </g>
        </g>
      </g>
    </g>
    <g id="Group_10035" data-name="Group 10035" transform="translate(-41 613.802)">
      <text id="نبذه_عن_المشروع" data-name="نبذه عن المشروع" transform="translate(337 133.198)" fill="#192f3e" font-size="25" font-family="Arial-BoldMT, Arial" font-weight="700"><tspan x="-144.141" y="0">نبذه عن المشروع</tspan></text>
      <text id="هـو_عبارة_عن_تطبيق_وموقع_تجربة_مميزة_بحيث_يساهم_في_حل_العديد_من_المشاكل_التي_تعاني_منها_المدراس_في_عملية_ادارتها_بحيث_يقلل_الوقت_من_مستنفذ_في_العمليات_الإدارية_واستغلاله_في_عمال_أخرى_ويسهل_عملية_متابعة_ولي_الامر_لابنة_من_متابعة_الدرجات_والتكاليف_التي_" data-name="هـو عبارة عن تطبيق وموقع تجربة مميزة بحيث يساهم في حل
 العديد من المشاكل التي تعاني منها المدراس في عملية ادارتها
 بحيث يقلل الوقت من مستنفذ في العمليات الإدارية واستغلاله في 
عمال أخرى، ويسهل عملية متابعة ولي الامر لابنة من متابعة
 الدرجات والتكاليف التي " transform="translate(424 160.198)" fill="#192f3e" font-size="16" font-family="ArialMT, Arial" letter-spacing="0.026em"><tspan x="-336.233" y="0">هـو عبارة عن تطبيق وموقع تجربة مميزة بحيث يساهم في حل</tspan><tspan y="0"></tspan><tspan x="-335.729" y="31"> </tspan><tspan y="31">العديد من المشاكل التي تعاني منها المدراس في عملية ادارتها</tspan><tspan y="31"></tspan><tspan x="-351.651" y="62"> </tspan><tspan y="62">بحيث يقلل الوقت من مستنفذ في العمليات الإدارية واستغلاله في</tspan><tspan y="62"> </tspan><tspan x="-327.913" y="93">عمال أخرى، ويسهل عملية متابعة ولي الامر لابنة من متابعة</tspan><tspan y="93"></tspan><tspan x="-343.227" y="124"> </tspan><tspan y="124">الدرجات والتكاليف التي يكلف بها الطالب خلال اليوم الدراسي</tspan><tspan y="124">.</tspan></text>
    </g>
  </g>
</svg>
