<svg xmlns="http://www.w3.org/2000/svg" width="104.629" height="104.629" viewBox="0 0 104.629 104.629">
  <path id="broken-check-circle" d="M84.238,41.313a4.024,4.024,0,1,0-5.691-5.691ZM40.988,78.873a4.024,4.024,0,0,0,5.691-5.691ZM30.582,57.085a4.024,4.024,0,0,0-5.691,5.691ZM5.228,72a4.024,4.024,0,0,0,7.588-2.682ZM26.741,89a4.024,4.024,0,1,0-5.063,6.256Zm22.3-23.862a4.024,4.024,0,0,0,5.691,5.691ZM24.891,62.775l16.1,16.1,5.691-5.691-16.1-16.1Zm73.94-8.211A44.266,44.266,0,0,1,54.564,98.831v8.048a52.314,52.314,0,0,0,52.314-52.314Zm-88.532,0A44.266,44.266,0,0,1,54.564,10.3V2.25A52.314,52.314,0,0,0,2.25,54.564ZM54.564,10.3A44.266,44.266,0,0,1,98.831,54.564h8.048A52.314,52.314,0,0,0,54.564,2.25ZM12.816,69.32A44.189,44.189,0,0,1,10.3,54.564H2.25A52.235,52.235,0,0,0,5.228,72Zm41.748,29.51A44.065,44.065,0,0,1,26.741,89l-5.063,6.256a52.113,52.113,0,0,0,32.886,11.627ZM78.547,35.622,49.036,65.133l5.691,5.691L67.561,57.99,84.238,41.313Z" transform="translate(-2.25 -2.25)" fill="#07ab9f"/>
</svg>
